<?xml version="1.0" encoding="UTF-8" standalone="no"?>
<!DOCTYPE svg PUBLIC "-//W3C//DTD SVG 1.1//EN" "http://www.w3.org/Graphics/SVG/1.1/DTD/svg11.dtd">
<svg width="100%" height="100%" viewBox="0 0 2481 3508" version="1.1" xmlns="http://www.w3.org/2000/svg" xmlns:xlink="http://www.w3.org/1999/xlink" xml:space="preserve" xmlns:serif="http://www.serif.com/" style="fill-rule:evenodd;clip-rule:evenodd;stroke-linejoin:round;stroke-miterlimit:2;">
    <g id="Vrstva-1" serif:id="Vrstva 1" transform="matrix(4.16667,0,0,4.16667,0,0)">
        <g transform="matrix(1,0,0,1,0,-55.921)">
            <path d="M221.781,441.177L226.163,450.919L217.618,450.919L221.781,441.177ZM227.197,453.314C228.938,457.478 229.21,457.749 229.21,458.158C229.21,458.349 229.047,458.457 228.693,458.484L228.693,458.811L233.21,458.811L233.21,458.484C232.475,458.376 232.449,458.294 232.176,457.695L224.23,440.524C224.067,440.144 223.958,439.898 223.958,439.79C223.958,439.49 224.285,439.408 224.53,439.328L224.53,439L219.359,439L219.359,439.328C219.795,439.408 219.931,439.49 219.931,439.79C219.931,439.898 219.849,440.089 219.767,440.333L212.774,456.525C212.012,458.24 212.039,458.457 211.168,458.484L211.168,458.811L215.196,458.811L215.196,458.484C214.788,458.403 214.706,458.24 214.706,458.022C214.706,457.886 214.869,457.532 216.611,453.314L227.197,453.314" style="fill:rgb(0,62,122);fill-rule:nonzero;"/>
        </g>
        <g transform="matrix(1,0,0,1,0,-55.921)">
            <path d="M239.442,441.395L248.259,441.395C251.687,441.395 254.735,443.681 254.735,448.906C254.735,454.13 251.687,456.417 248.259,456.417L239.442,456.417L239.442,441.395ZM236.666,457.858C236.666,458.376 236.503,458.484 235.904,458.484L235.904,458.811L248.259,458.811C253.184,458.811 257.511,455.709 257.511,448.906C257.511,442.103 253.184,439 248.259,439L235.904,439L235.904,439.328C236.503,439.328 236.666,439.436 236.666,439.954L236.666,457.858" style="fill:rgb(0,62,122);fill-rule:nonzero;"/>
        </g>
        <g transform="matrix(1,0,0,1,0,-55.921)">
            <path d="M264.804,439L264.804,439.328C263.906,439.381 263.797,439.518 263.797,439.898C263.797,440.116 264.096,440.769 270.682,456.227C277.376,440.307 277.539,440.034 277.539,439.762C277.539,439.518 277.022,439.381 276.723,439.328L276.723,439L281.322,439L281.322,439.328C280.505,439.381 280.397,439.544 280.097,440.252L272.695,457.695C272.641,457.858 272.614,457.967 272.614,458.131C272.614,458.376 272.777,458.484 273.24,458.484L273.24,458.811L268.069,458.811L268.069,458.484C268.505,458.484 268.614,458.376 268.614,458.186C268.614,458.077 268.614,457.886 268.45,457.532L261.021,440.116C260.83,439.681 260.586,439.381 259.715,439.328L259.715,439L264.804,439" style="fill:rgb(0,62,122);fill-rule:nonzero;"/>
        </g>
        <g transform="matrix(1,0,0,1,0,-55.921)">
            <path d="M289.783,441.177L294.163,450.919L285.619,450.919L289.783,441.177ZM295.198,453.314C296.939,457.478 297.211,457.749 297.211,458.158C297.211,458.349 297.048,458.457 296.695,458.484L296.695,458.811L301.211,458.811L301.211,458.484C300.477,458.376 300.45,458.294 300.177,457.695L292.232,440.524C292.068,440.144 291.959,439.898 291.959,439.79C291.959,439.49 292.286,439.408 292.531,439.328L292.531,439L287.361,439L287.361,439.328C287.796,439.408 287.932,439.49 287.932,439.79C287.932,439.898 287.85,440.089 287.769,440.333L280.775,456.525C280.013,458.24 280.04,458.457 279.169,458.484L279.169,458.811L283.197,458.811L283.197,458.484C282.788,458.403 282.707,458.24 282.707,458.022C282.707,457.886 282.871,457.532 284.612,453.314L295.198,453.314" style="fill:rgb(0,62,122);fill-rule:nonzero;"/>
        </g>
        <g transform="matrix(1,0,0,1,0,-55.921)">
            <path d="M304.83,439.954C304.83,439.436 304.667,439.328 303.906,439.328L303.906,439L309.403,439L309.403,439.328C309.103,439.328 308.695,439.436 308.695,439.707C308.695,439.98 309.13,440.388 309.566,440.932L321.485,454.893L321.485,439.954C321.485,439.436 321.322,439.328 320.614,439.328L320.614,439L324.805,439L324.805,439.328C324.042,439.328 323.879,439.436 323.879,439.954L323.879,457.858C323.879,458.376 324.042,458.484 324.805,458.484L324.805,458.811L320.124,458.811L320.124,458.484C320.668,458.457 320.778,458.349 320.778,458.131C320.778,457.858 320.614,457.749 320.342,457.396L307.225,442.103L307.225,457.858C307.225,458.376 307.389,458.484 308.096,458.484L308.096,458.811L303.906,458.811L303.906,458.484C304.667,458.484 304.83,458.376 304.83,457.858L304.83,439.954" style="fill:rgb(0,62,122);fill-rule:nonzero;"/>
        </g>
        <g transform="matrix(1,0,0,1,0,-55.921)">
            <path d="M347.745,444.443L347.336,444.226C347.391,444.062 347.418,443.898 347.418,443.817C347.418,442.647 344.506,441.014 340.37,441.014C335.472,441.014 331.444,443.926 331.444,448.852C331.444,453.777 335.308,456.797 340.043,456.797C344.234,456.797 347.88,454.268 347.88,453.232C347.88,452.934 347.827,452.715 347.772,452.552L347.99,452.389L350.547,455.654L350.33,455.818C350.166,455.682 349.976,455.545 349.65,455.545C348.751,455.545 346.52,459.083 339.717,459.083C334.165,459.083 328.668,454.974 328.668,448.906C328.668,442.838 334.165,438.728 340.153,438.728C345.486,438.728 348.098,440.852 348.861,440.852C349.024,440.852 349.214,440.715 349.405,440.442L349.731,440.633L347.745,444.443" style="fill:rgb(0,62,122);fill-rule:nonzero;"/>
        </g>
        <g transform="matrix(1,0,0,1,0,-55.921)">
            <path d="M357.269,456.417L371.256,456.417C371.746,456.417 371.963,456.309 372.073,455.545L372.399,455.545L372.399,459.682L372.073,459.682C371.963,458.92 371.746,458.811 371.256,458.811L353.677,458.811L353.677,458.484C354.33,458.484 354.494,458.376 354.494,457.858L354.494,439.954C354.494,439.436 354.33,439.328 353.677,439.328L353.677,439L371.256,439C371.746,439 371.963,438.893 372.073,438.129L372.399,438.129L372.399,442.266L372.073,442.266C371.963,441.504 371.746,441.395 371.256,441.395L357.269,441.395L357.269,447.654L367.066,447.654C367.555,447.654 367.773,447.545 367.881,446.783L368.208,446.783L368.208,451.028L367.881,451.028C367.773,450.157 367.555,450.048 367.066,450.048L357.269,450.048L357.269,456.417" style="fill:rgb(0,62,122);fill-rule:nonzero;"/>
        </g>
        <g transform="matrix(1,0,0,1,0,-55.921)">
            <path d="M379.991,441.395L388.808,441.395C392.237,441.395 395.285,443.681 395.285,448.906C395.285,454.13 392.237,456.417 388.808,456.417L379.991,456.417L379.991,441.395ZM377.215,457.858C377.215,458.376 377.052,458.484 376.454,458.484L376.454,458.811L388.808,458.811C393.734,458.811 398.06,455.709 398.06,448.906C398.06,442.103 393.734,439 388.808,439L376.454,439L376.454,439.328C377.052,439.328 377.215,439.436 377.215,439.954L377.215,457.858" style="fill:rgb(0,62,122);fill-rule:nonzero;"/>
        </g>
        <g transform="matrix(1,0,0,1,0,0.773)">
            <path d="M216.992,413.047L226.054,413.047C228.666,413.047 229.945,414.491 229.945,416.096C229.945,418.707 228.312,419.524 226.598,419.524L216.992,419.524L216.992,413.047ZM217.863,430.464L217.863,430.138C217.155,430.138 216.992,430.028 216.992,429.512L216.992,421.919L224.557,421.919L228.503,428.342C228.993,429.157 229.156,429.376 229.156,429.675C229.156,430.001 228.965,430.11 228.23,430.138L228.23,430.464L233.374,430.464L233.374,430.138C232.748,430.11 232.558,430.001 232.285,429.565L227.387,421.62C230.571,421.593 232.721,419.524 232.721,416.26C232.721,412.775 230.054,410.653 226.054,410.653L213.345,410.653L213.345,410.979C214.053,410.979 214.216,411.088 214.216,411.605L214.216,429.512C214.216,430.028 214.053,430.138 213.345,430.138L213.345,430.464L217.863,430.464" style="fill:rgb(0,62,122);fill-rule:nonzero;"/>
        </g>
        <g transform="matrix(1,0,0,1,0,0.773)">
            <path d="M237.537,430.464L237.537,430.138C238.027,430.138 238.19,430.028 238.19,429.512L238.19,411.605C238.19,411.088 238.027,410.979 237.537,410.979L237.537,410.653L241.619,410.653L241.619,410.979C241.129,410.979 240.966,411.088 240.966,411.605L240.966,429.512C240.966,430.028 241.129,430.138 241.619,430.138L241.619,430.464L237.537,430.464" style="fill:rgb(0,62,122);fill-rule:nonzero;"/>
        </g>
        <g transform="matrix(1,0,0,1,0,0.773)">
            <path d="M263.008,415.66L262.654,415.496C262.654,415.36 262.681,415.252 262.681,415.17C262.681,414.435 259.416,412.666 254.898,412.666C251.497,412.666 248.966,414.027 248.966,416.231C248.966,421.702 265.076,416.041 265.076,424.505C265.076,428.587 261.049,430.736 255.796,430.736C249.619,430.736 247.007,428.26 246.463,428.26C246.136,428.26 246,428.395 245.809,428.667L245.455,428.505L247.442,424.64L247.769,424.831C247.742,424.993 247.66,425.157 247.66,425.32C247.66,426.491 251.796,428.45 255.905,428.45C260.341,428.45 262.627,426.845 262.627,424.667C262.627,419.089 246.517,425.077 246.517,416.26C246.517,412.885 250.218,410.381 255.388,410.381C257.81,410.381 259.797,410.87 261.212,411.36C262.654,411.85 263.525,412.34 263.743,412.34C263.988,412.34 264.123,412.204 264.368,412.013L264.695,412.122L263.008,415.66" style="fill:rgb(0,62,122);fill-rule:nonzero;"/>
        </g>
        <g transform="matrix(1,0,0,1,0,0.773)">
            <path d="M269.158,430.464L269.158,430.138C269.702,430.138 269.865,430.028 269.865,429.512L269.865,411.605C269.865,411.088 269.702,410.979 269.158,410.979L269.158,410.653L273.512,410.653L273.512,410.979C272.804,410.979 272.641,411.088 272.641,411.605L272.641,420.068C283.118,411.714 283.526,411.633 283.526,411.36C283.526,411.088 283.39,411.006 283.09,410.979L283.09,410.653L288.75,410.653L288.75,410.979C287.961,411.006 287.254,411.687 286.628,412.149L279.118,417.837L288.397,429.839C288.56,430.028 288.615,430.138 289.349,430.138L289.349,430.464L284.342,430.464L284.342,430.138C284.723,430.138 284.996,430.055 284.996,429.866C284.996,429.675 284.75,429.43 284.206,428.722L277.022,419.47L272.641,422.954L272.641,429.512C272.641,430.028 272.804,430.138 273.512,430.138L273.512,430.464L269.158,430.464" style="fill:rgb(0,62,122);fill-rule:nonzero;"/>
        </g>
        <g transform="matrix(1,0,0,1,0,57.465)">
            <path d="M213.236,402.118L213.236,401.791C213.944,401.791 214.107,401.682 214.107,401.165L214.107,383.26C214.107,382.742 213.944,382.635 213.236,382.635L213.236,382.307L218.897,382.307L218.897,382.635C218.461,382.635 218.189,382.77 218.189,383.205C218.189,383.586 218.516,383.831 224.502,396.35C230.734,383.641 230.925,383.505 230.925,383.123C230.925,382.797 230.707,382.661 230.163,382.635L230.163,382.307L235.66,382.307L235.66,382.635C235.006,382.635 234.843,382.742 234.843,383.26L234.843,401.165C234.843,401.682 235.006,401.791 235.66,401.791L235.66,402.118L231.414,402.118L231.414,401.791C232.068,401.791 232.231,401.682 232.231,401.165L232.231,386.063L232.285,386.063L224.393,401.846L216.774,386.063L216.72,386.063L216.72,401.165C216.72,401.682 216.883,401.791 217.481,401.791L217.481,402.118L213.236,402.118" style="fill:rgb(0,62,122);fill-rule:nonzero;"/>
        </g>
        <g transform="matrix(1,0,0,1,0,57.465)">
            <path d="M248.993,384.485L253.375,394.227L244.83,394.227L248.993,384.485ZM254.409,396.621C256.151,400.784 256.423,401.057 256.423,401.465C256.423,401.655 256.26,401.764 255.906,401.791L255.906,402.118L260.423,402.118L260.423,401.791C259.688,401.682 259.661,401.602 259.389,401.002L251.443,383.831C251.28,383.45 251.171,383.205 251.171,383.096C251.171,382.797 251.497,382.715 251.742,382.635L251.742,382.307L246.572,382.307L246.572,382.635C247.007,382.715 247.143,382.797 247.143,383.096C247.143,383.205 247.062,383.397 246.98,383.641L239.986,399.832C239.225,401.546 239.252,401.764 238.381,401.791L238.381,402.118L242.408,402.118L242.408,401.791C242,401.71 241.918,401.546 241.918,401.329C241.918,401.194 242.082,400.84 243.823,396.621L254.409,396.621" style="fill:rgb(0,62,122);fill-rule:nonzero;"/>
        </g>
        <g transform="matrix(1,0,0,1,0,57.465)">
            <path d="M264.042,383.26C264.042,382.742 263.879,382.635 263.117,382.635L263.117,382.307L268.614,382.307L268.614,382.635C268.314,382.635 267.906,382.742 267.906,383.014C267.906,383.287 268.342,383.696 268.777,384.239L280.697,398.199L280.697,383.26C280.697,382.742 280.533,382.635 279.826,382.635L279.826,382.307L284.016,382.307L284.016,382.635C283.254,382.635 283.091,382.742 283.091,383.26L283.091,401.165C283.091,401.682 283.254,401.791 284.016,401.791L284.016,402.118L279.335,402.118L279.335,401.791C279.88,401.764 279.989,401.655 279.989,401.438C279.989,401.165 279.826,401.057 279.553,400.703L266.437,385.409L266.437,401.165C266.437,401.682 266.6,401.791 267.308,401.791L267.308,402.118L263.117,402.118L263.117,401.791C263.879,401.791 264.042,401.682 264.042,401.165L264.042,383.26" style="fill:rgb(0,62,122);fill-rule:nonzero;"/>
        </g>
        <g transform="matrix(1,0,0,1,0,57.465)">
            <path d="M297.35,384.485L301.731,394.227L293.186,394.227L297.35,384.485ZM302.765,396.621C304.507,400.784 304.779,401.057 304.779,401.465C304.779,401.655 304.616,401.764 304.262,401.791L304.262,402.118L308.78,402.118L308.78,401.791C308.044,401.682 308.017,401.602 307.746,401.002L299.799,383.831C299.636,383.45 299.527,383.205 299.527,383.096C299.527,382.797 299.854,382.715 300.098,382.635L300.098,382.307L294.928,382.307L294.928,382.635C295.364,382.715 295.499,382.797 295.499,383.096C295.499,383.205 295.417,383.397 295.336,383.641L288.342,399.832C287.58,401.546 287.608,401.764 286.737,401.791L286.737,402.118L290.764,402.118L290.764,401.791C290.356,401.71 290.275,401.546 290.275,401.329C290.275,401.194 290.438,400.84 292.179,396.621L302.765,396.621" style="fill:rgb(0,62,122);fill-rule:nonzero;"/>
        </g>
        <g transform="matrix(1,0,0,1,0,57.466)">
            <path d="M329.76,388.103L329.515,387.912C329.57,387.777 329.597,387.64 329.597,387.423C329.597,386.578 325.923,384.32 322.277,384.32C317.406,384.32 313.432,387.476 313.432,392.456C313.432,396.947 317.569,400.103 321.732,400.103C324.426,400.103 327.093,399.505 329.27,397.845L329.27,394.66L324.154,394.66C323.664,394.66 323.447,394.66 323.337,395.368L323.011,395.368L323.011,391.667L323.337,391.667C323.447,392.157 323.664,392.375 324.154,392.375L332.699,392.375L332.699,392.701C332.263,392.81 332.046,393.028 332.046,393.627L332.046,398.879C329.107,401.355 326.249,402.39 322.004,402.39C316.044,402.39 310.657,398.689 310.657,392.32C310.657,386.17 316.208,382.034 322.195,382.034C327.229,382.034 330.413,384.619 331.012,384.619C331.284,384.619 331.447,384.429 331.664,384.265L331.938,384.374L329.76,388.103" style="fill:rgb(0,62,122);fill-rule:nonzero;"/>
        </g>
        <g transform="matrix(1,0,0,1,0,57.464)">
            <path d="M340.645,399.724L354.632,399.724C355.121,399.724 355.339,399.616 355.449,398.853L355.775,398.853L355.775,402.989L355.449,402.989C355.339,402.228 355.121,402.119 354.632,402.119L337.052,402.119L337.052,401.792C337.705,401.792 337.868,401.683 337.868,401.166L337.868,383.261C337.868,382.743 337.705,382.636 337.052,382.636L337.052,382.308L354.632,382.308C355.121,382.308 355.339,382.199 355.449,381.437L355.775,381.437L355.775,385.574L355.449,385.574C355.339,384.812 355.121,384.703 354.632,384.703L340.645,384.703L340.645,390.962L350.441,390.962C350.931,390.962 351.149,390.853 351.257,390.091L351.584,390.091L351.584,394.336L351.257,394.336C351.149,393.466 350.931,393.357 350.441,393.357L340.645,393.357L340.645,399.724" style="fill:rgb(0,62,122);fill-rule:nonzero;"/>
        </g>
        <g transform="matrix(1,0,0,1,0,57.465)">
            <path d="M359.83,402.118L359.83,401.791C360.537,401.791 360.7,401.682 360.7,401.165L360.7,383.26C360.7,382.742 360.537,382.635 359.83,382.635L359.83,382.307L365.49,382.307L365.49,382.635C365.054,382.635 364.782,382.77 364.782,383.205C364.782,383.586 365.109,383.831 371.095,396.35C377.327,383.641 377.517,383.505 377.517,383.123C377.517,382.797 377.3,382.661 376.755,382.635L376.755,382.307L382.252,382.307L382.252,382.635C381.599,382.635 381.436,382.742 381.436,383.26L381.436,401.165C381.436,401.682 381.599,401.791 382.252,401.791L382.252,402.118L378.007,402.118L378.007,401.791C378.661,401.791 378.824,401.682 378.824,401.165L378.824,386.063L378.878,386.063L370.987,401.846L363.367,386.063L363.313,386.063L363.313,401.165C363.313,401.682 363.476,401.791 364.075,401.791L364.075,402.118L359.83,402.118" style="fill:rgb(0,62,122);fill-rule:nonzero;"/>
        </g>
        <g transform="matrix(1,0,0,1,0,57.464)">
            <path d="M390.525,399.724L404.512,399.724C405.002,399.724 405.22,399.616 405.329,398.853L405.656,398.853L405.656,402.989L405.329,402.989C405.22,402.228 405.002,402.119 404.512,402.119L386.933,402.119L386.933,401.792C387.586,401.792 387.749,401.683 387.749,401.166L387.749,383.261C387.749,382.743 387.586,382.636 386.933,382.636L386.933,382.308L404.512,382.308C405.002,382.308 405.22,382.199 405.329,381.437L405.656,381.437L405.656,385.574L405.329,385.574C405.22,384.812 405.002,384.703 404.512,384.703L390.525,384.703L390.525,390.962L400.322,390.962C400.813,390.962 401.029,390.853 401.138,390.091L401.464,390.091L401.464,394.336L401.138,394.336C401.029,393.466 400.813,393.357 400.322,393.357L390.525,393.357L390.525,399.724" style="fill:rgb(0,62,122);fill-rule:nonzero;"/>
        </g>
        <g transform="matrix(1,0,0,1,0,57.465)">
            <path d="M410.635,383.26C410.635,382.742 410.472,382.635 409.709,382.635L409.709,382.307L415.206,382.307L415.206,382.635C414.908,382.635 414.499,382.742 414.499,383.014C414.499,383.287 414.935,383.696 415.37,384.239L427.289,398.199L427.289,383.26C427.289,382.742 427.125,382.635 426.418,382.635L426.418,382.307L430.609,382.307L430.609,382.635C429.847,382.635 429.684,382.742 429.684,383.26L429.684,401.165C429.684,401.682 429.847,401.791 430.609,401.791L430.609,402.118L425.928,402.118L425.928,401.791C426.473,401.764 426.581,401.655 426.581,401.438C426.581,401.165 426.418,401.057 426.146,400.703L413.03,385.409L413.03,401.165C413.03,401.682 413.193,401.791 413.901,401.791L413.901,402.118L409.709,402.118L409.709,401.791C410.472,401.791 410.635,401.682 410.635,401.165L410.635,383.26" style="fill:rgb(0,62,122);fill-rule:nonzero;"/>
        </g>
        <g transform="matrix(1,0,0,1,0,56.594)">
            <path d="M433.82,382.307L434.146,382.307C434.255,383.069 434.473,383.178 434.962,383.178L452.215,383.178C452.705,383.178 452.923,383.069 453.032,382.307L453.359,382.307L453.359,386.444L453.032,386.444C452.923,385.682 452.705,385.573 452.215,385.573L444.977,385.573L444.977,402.036C444.977,402.553 445.14,402.662 445.848,402.662L445.848,402.989L441.33,402.989L441.33,402.662C442.038,402.662 442.202,402.553 442.202,402.036L442.202,385.573L434.962,385.573C434.473,385.573 434.255,385.682 434.146,386.444L433.82,386.444L433.82,382.307" style="fill:rgb(0,62,122);fill-rule:nonzero;"/>
        </g>
        <g transform="matrix(-0.707125,-0.707089,-0.707089,0.707125,630.734,216.94)">
            <rect x="171.94" y="429.099" width="28.001" height="27.999" style="fill:rgb(0,62,122);"/>
        </g>
        <g transform="matrix(-0.707107,-0.707107,-0.707107,0.707107,598.889,293.358)">
            <rect x="171.84" y="384.3" width="28" height="28" style="fill:rgb(161,161,164);"/>
        </g>
        <g transform="matrix(-0.707107,-0.707107,-0.707107,0.707107,576.727,239.178)">
            <rect x="149.538" y="406.8" width="28" height="28" style="fill:rgb(179,7,56);"/>
        </g>
        <g transform="matrix(-0.707107,-0.707107,-0.707107,0.707107,598.889,293.358)">
            <rect x="171.84" y="384.3" width="28" height="28" style="fill:rgb(161,161,164);"/>
        </g>
    </g>
</svg>
