<svg width="53" height="52" viewBox="0 0 53 52" fill="none" xmlns="http://www.w3.org/2000/svg">
<path d="M26.5017 0.00165633C11.8611 0.00165633 0 11.8727 0 26.5033C0 38.2187 7.59273 48.1485 18.1155 51.6517C19.4456 51.9018 19.9259 51.0819 19.9259 50.373C19.9259 49.7436 19.911 48.079 19.9011 45.8694C12.5253 47.4661 10.9717 42.3066 10.9717 42.3066C9.7642 39.2523 8.02172 38.4324 8.02172 38.4324C5.62332 36.7942 8.2122 36.829 8.2122 36.829C10.869 37.0096 12.267 39.5537 12.267 39.5537C14.6306 43.6085 18.4683 42.4358 19.9872 41.7534C20.2191 40.0457 20.9098 38.8713 21.6618 38.217C15.7784 37.5528 9.59194 35.2754 9.59194 25.1203C9.59194 22.22 10.6189 19.858 12.3166 18.0029C12.0235 17.3387 11.1257 14.6389 12.5502 10.9882C12.5502 10.9882 14.768 10.281 19.8381 13.7063C21.9599 13.1183 24.2126 12.8251 26.4636 12.8102C28.7162 12.8251 30.9672 13.12 33.089 13.7063C38.1293 10.281 40.3455 10.9882 40.3455 10.9882C41.7683 14.6389 40.8705 17.3371 40.6121 18.0029C42.2933 19.858 43.3203 22.2216 43.3203 25.1203C43.3203 35.2986 37.1255 37.5429 31.2355 38.1905C32.1564 38.9839 33.0194 40.6154 33.0194 43.0917C33.0194 46.6363 32.9863 49.4918 32.9863 50.3548C32.9863 51.0438 33.4501 51.872 34.8149 51.6054C45.4156 48.1386 53 38.2005 53 26.5017C53 11.8711 41.1389 0 26.4983 0L26.5017 0.00165633Z" fill="#4F0E1A"/>
</svg>
