<svg width="53" height="53" viewBox="0 0 53 53" fill="none" xmlns="http://www.w3.org/2000/svg">
<path d="M49.0902 0.000200705H3.90984C2.88473 -0.010232 1.89734 0.386425 1.16434 1.10313C0.431346 1.81984 0.0126033 2.79807 0 3.82315V49.1859C0.0148825 50.2095 0.434627 51.1855 1.16738 51.9003C1.90013 52.6152 2.88621 53.0106 3.90984 53.0002H49.0902C50.1153 53.0083 51.1021 52.6103 51.8347 51.8932C52.5673 51.176 52.9863 50.198 53 49.1729V3.81012C52.9817 2.78804 52.5608 1.81448 51.8286 1.10106C51.0965 0.387642 50.1124 -0.00797591 49.0902 0.000200705Z" fill="#4F0E1A"/>
<path d="M7.84576 19.8667H15.7132V45.1807H7.84576V19.8667ZM11.7817 7.26831C12.684 7.26831 13.5661 7.53595 14.3163 8.03736C15.0666 8.53877 15.6512 9.25144 15.9963 10.0852C16.3414 10.9189 16.4315 11.8363 16.2552 12.7213C16.0788 13.6062 15.6439 14.419 15.0056 15.0568C14.3672 15.6945 13.554 16.1286 12.6689 16.3041C11.7838 16.4797 10.8665 16.3887 10.033 16.0428C9.19962 15.6969 8.48752 15.1115 7.98682 14.3608C7.48612 13.6101 7.21933 12.7278 7.22019 11.8254C7.22134 10.6164 7.70243 9.4573 8.55775 8.6028C9.41306 7.7483 10.5726 7.26831 11.7817 7.26831Z" fill="white"/>
<path d="M20.6483 19.8665H28.1899V23.3419H28.2942C29.3455 21.3522 31.9086 19.2539 35.7359 19.2539C43.7033 19.2366 45.1803 24.4801 45.1803 31.2789V45.1805H37.3129V32.8645C37.3129 29.9321 37.2607 26.157 33.2249 26.157C29.1891 26.157 28.5027 29.3544 28.5027 32.6734V45.1805H20.6483V19.8665Z" fill="white"/>
</svg>
