<svg width="66" height="53" viewBox="0 0 66 53" fill="none" xmlns="http://www.w3.org/2000/svg">
<path d="M0 6.625C0 4.86794 0.695355 3.18285 1.93309 1.94042C3.17083 0.697989 4.84957 0 6.6 0H59.4C61.1504 0 62.8292 0.697989 64.0669 1.94042C65.3046 3.18285 66 4.86794 66 6.625V46.375C66 48.1321 65.3046 49.8172 64.0669 51.0596C62.8292 52.302 61.1504 53 59.4 53H6.6C4.84957 53 3.17083 52.302 1.93309 51.0596C0.695355 49.8172 0 48.1321 0 46.375V6.625ZM11.6127 6.625L33 25.4102L54.3873 6.625H11.6127ZM59.4 11.0273L35.1747 32.3068C34.5729 32.8361 33.8001 33.1278 33 33.1278C32.1999 33.1278 31.4271 32.8361 30.8253 32.3068L6.6 11.0273V46.375H59.4V11.0273Z" fill="#4F0E1A"/>
</svg>
