<?xml version="1.0" encoding="UTF-8" standalone="no"?>
<!DOCTYPE svg PUBLIC "-//W3C//DTD SVG 1.1//EN" "http://www.w3.org/Graphics/SVG/1.1/DTD/svg11.dtd">
<svg width="100%" height="100%" viewBox="0 0 1008 54" version="1.1" xmlns="http://www.w3.org/2000/svg" xmlns:xlink="http://www.w3.org/1999/xlink" xml:space="preserve" xmlns:serif="http://www.serif.com/" style="fill-rule:evenodd;clip-rule:evenodd;stroke-linejoin:round;stroke-miterlimit:2;">
    <g transform="matrix(1,0,0,1,4.44909,-239.239)">
        <g>
            <g transform="matrix(1,0,0,1,405.99,172.831)">
                <g transform="matrix(0.177081,0,0,0.177081,546.928,106.028)">
                    <path d="M0,-139.623C1.831,-139.623 3.646,-138.822 4.884,-137.293C5.195,-136.909 36.534,-98.572 79.931,-77.344C82.084,-76.29 83.45,-74.098 83.45,-71.704C83.45,-69.309 82.084,-67.118 79.931,-66.063C36.567,-44.843 5.881,-3.785 5.575,-3.367C3.515,-0.58 -0.434,0 -3.204,-2.06C-5.991,-4.12 -6.581,-8.051 -4.521,-10.839C-3.306,-12.482 23.546,-48.392 63.799,-71.679C23.59,-94.509 -3.646,-127.876 -4.88,-129.397C-7.059,-132.095 -6.638,-136.042 -3.944,-138.225C-2.783,-139.165 -1.386,-139.623 0,-139.623" style="fill:white;fill-rule:nonzero;stroke:white;stroke-width:5.65px;"/>
                </g>
                <g transform="matrix(0.177081,0,0,0.177081,546.928,106.028)">
                    <path d="M0,-139.623C1.831,-139.623 3.646,-138.822 4.884,-137.293C5.195,-136.909 36.534,-98.572 79.931,-77.344C82.084,-76.29 83.45,-74.098 83.45,-71.704C83.45,-69.309 82.084,-67.118 79.931,-66.063C36.567,-44.843 5.881,-3.785 5.575,-3.367C3.515,-0.58 -0.434,0 -3.204,-2.06C-5.991,-4.12 -6.581,-8.051 -4.521,-10.839C-3.306,-12.482 23.546,-48.392 63.799,-71.679C23.59,-94.509 -3.646,-127.876 -4.88,-129.397C-7.059,-132.095 -6.638,-136.042 -3.944,-138.225C-2.783,-139.165 -1.386,-139.623 0,-139.623Z" style="fill:white;fill-rule:nonzero;stroke:white;stroke-width:5px;stroke-linejoin:miter;stroke-miterlimit:10;"/>
                </g>
                <g transform="matrix(0.177081,0,0,0.177081,583.875,94.0003)">
                    <path d="M0,-3.064C-40.576,-12.464 -104.249,-37.649 -165.171,-104.963C-180.269,-84.536 -229.898,-23.335 -295.708,-3.668C-229.804,16.791 -180.13,80.509 -165.073,101.696C-104.146,34.341 -40.495,7.563 0,-3.064M-165.71,-121.304C-163.899,-121.304 -162.171,-120.519 -160.978,-119.145C-65.291,-9.244 41.227,-10.209 42.371,-10.061C45.587,-10.126 48.707,-7.38 48.776,-3.906C48.845,-0.448 46.095,2.421 42.633,2.495C41.563,2.519 -65.38,6.189 -160.978,115.993C-162.269,117.48 -164.219,118.24 -166.156,118.134C-168.122,117.995 -169.912,116.94 -170.982,115.282C-171.71,114.153 -245.033,2.495 -336.551,2.495C-340.016,2.495 -342.828,-0.317 -342.828,-3.783C-342.828,-7.25 -340.016,-10.061 -336.551,-10.061C-244.967,-10.061 -171.649,-117.445 -170.921,-118.532C-169.83,-120.151 -168.048,-121.172 -166.099,-121.287C-165.968,-121.295 -165.841,-121.304 -165.71,-121.304" style="fill:white;fill-rule:nonzero;stroke:white;stroke-width:5.65px;"/>
                </g>
                <g transform="matrix(0.177081,0,0,0.177081,583.875,94.0003)">
                    <path d="M0,-3.064C-40.576,-12.464 -104.249,-37.649 -165.171,-104.963C-180.269,-84.536 -229.898,-23.335 -295.708,-3.668C-229.804,16.791 -180.13,80.509 -165.073,101.696C-104.146,34.341 -40.495,7.563 0,-3.064ZM-165.71,-121.304C-163.899,-121.304 -162.171,-120.519 -160.978,-119.145C-65.291,-9.244 41.227,-10.209 42.371,-10.061C45.587,-10.126 48.707,-7.38 48.776,-3.906C48.845,-0.448 46.095,2.421 42.633,2.495C41.563,2.519 -65.38,6.189 -160.978,115.993C-162.269,117.48 -164.219,118.24 -166.156,118.134C-168.122,117.995 -169.912,116.94 -170.982,115.282C-171.71,114.153 -245.033,2.495 -336.551,2.495C-340.016,2.495 -342.828,-0.317 -342.828,-3.783C-342.828,-7.25 -340.016,-10.061 -336.551,-10.061C-244.967,-10.061 -171.649,-117.445 -170.921,-118.532C-169.83,-120.151 -168.048,-121.172 -166.099,-121.287C-165.968,-121.295 -165.841,-121.304 -165.71,-121.304Z" style="fill:white;fill-rule:nonzero;stroke:white;stroke-width:5px;stroke-linejoin:miter;stroke-miterlimit:10;"/>
                </g>
                <g transform="matrix(0.241312,0,0,0.177081,93.6916,94.4421)">
                    <path d="M0,-12.556L1782.48,-12.556C1785.67,-12.556 1788.52,-10.262 1788.91,-7.096C1789.4,-3.265 1786.42,0 1782.69,0L0.264,0C-2.959,0 -5.854,-2.313 -6.232,-5.514C-6.683,-9.321 -3.718,-12.556 0,-12.556Z" style="fill:white;fill-rule:nonzero;stroke:white;stroke-width:5px;stroke-linejoin:miter;stroke-miterlimit:10;"/>
                </g>
                <g transform="matrix(0.177081,0,0,0.177081,505.606,116.4)">
                    <path d="M0,-257.191C13.667,-257.191 27.661,-250.659 36.71,-239.371C56.909,-214.17 50.492,-176.046 32.962,-155.177C23.672,-144.118 10.855,-135.592 -3.896,-130.279C10.859,-124.958 23.672,-116.432 32.962,-105.372C50.492,-84.504 56.909,-46.379 36.71,-21.178C25.054,-6.636 5.19,0 -11.611,-5.026C-30.097,-10.561 -42.396,-29.826 -39.02,-47.973C-36.943,-59.148 -29.312,-68.016 -19.577,-70.583C-13.679,-72.128 -7.018,-70.902 -1.762,-67.314C3.024,-64.035 5.992,-59.311 6.596,-53.998C6.989,-50.548 4.516,-47.442 1.071,-47.05C-2.404,-46.747 -5.489,-49.134 -5.877,-52.575C-6.131,-54.783 -7.847,-56.262 -8.849,-56.949C-11.117,-58.493 -14.015,-59.083 -16.381,-58.436C-21.286,-57.145 -25.52,-51.905 -26.677,-45.685C-28.875,-33.848 -20.326,-20.745 -8.011,-17.058C4.021,-13.437 18.375,-18.375 26.909,-29.025C42.62,-48.627 37.752,-80.147 23.349,-97.296C9.42,-113.881 -14.109,-123.797 -39.829,-124.001C-40.368,-124.009 -40.904,-124.009 -41.435,-124.001C-44.884,-124.025 -47.668,-126.83 -47.668,-130.279C-47.668,-133.728 -44.884,-136.532 -41.435,-136.557L-39.829,-136.557C-14.109,-136.745 9.42,-146.668 23.349,-163.254C37.752,-180.403 42.62,-211.922 26.909,-231.524C18.375,-242.167 4.014,-247.096 -8.007,-243.491C-20.326,-239.805 -28.875,-226.701 -26.677,-214.865C-25.52,-208.645 -21.286,-203.405 -16.381,-202.113C-14.007,-201.468 -11.113,-202.056 -8.849,-203.602C-7.847,-204.288 -6.131,-205.768 -5.877,-207.974C-5.485,-211.416 -2.358,-213.868 1.071,-213.5C4.516,-213.108 6.989,-210.002 6.596,-206.552C5.992,-201.239 3.024,-196.514 -1.762,-193.236C-7.018,-189.648 -13.688,-188.422 -19.577,-189.967C-29.312,-192.533 -36.943,-201.402 -39.02,-212.576C-42.396,-230.723 -30.097,-249.99 -11.608,-255.524C-7.851,-256.652 -3.94,-257.191 0,-257.191" style="fill:white;fill-rule:nonzero;stroke:white;stroke-width:5.65px;"/>
                </g>
                <g transform="matrix(0.177081,0,0,0.177081,505.606,116.4)">
                    <path d="M0,-257.191C13.667,-257.191 27.661,-250.659 36.71,-239.371C56.909,-214.17 50.492,-176.046 32.962,-155.177C23.672,-144.118 10.855,-135.592 -3.896,-130.279C10.859,-124.958 23.672,-116.432 32.962,-105.372C50.492,-84.504 56.909,-46.379 36.71,-21.178C25.054,-6.636 5.19,0 -11.611,-5.026C-30.097,-10.561 -42.396,-29.826 -39.02,-47.973C-36.943,-59.148 -29.312,-68.016 -19.577,-70.583C-13.679,-72.128 -7.018,-70.902 -1.762,-67.314C3.024,-64.035 5.992,-59.311 6.596,-53.998C6.989,-50.548 4.516,-47.442 1.071,-47.05C-2.404,-46.747 -5.489,-49.134 -5.877,-52.575C-6.131,-54.783 -7.847,-56.262 -8.849,-56.949C-11.117,-58.493 -14.015,-59.083 -16.381,-58.436C-21.286,-57.145 -25.52,-51.905 -26.677,-45.685C-28.875,-33.848 -20.326,-20.745 -8.011,-17.058C4.021,-13.437 18.375,-18.375 26.909,-29.025C42.62,-48.627 37.752,-80.147 23.349,-97.296C9.42,-113.881 -14.109,-123.797 -39.829,-124.001C-40.368,-124.009 -40.904,-124.009 -41.435,-124.001C-44.884,-124.025 -47.668,-126.83 -47.668,-130.279C-47.668,-133.728 -44.884,-136.532 -41.435,-136.557L-39.829,-136.557C-14.109,-136.745 9.42,-146.668 23.349,-163.254C37.752,-180.403 42.62,-211.922 26.909,-231.524C18.375,-242.167 4.014,-247.096 -8.007,-243.491C-20.326,-239.805 -28.875,-226.701 -26.677,-214.865C-25.52,-208.645 -21.286,-203.405 -16.381,-202.113C-14.007,-201.468 -11.113,-202.056 -8.849,-203.602C-7.847,-204.288 -6.131,-205.768 -5.877,-207.974C-5.485,-211.416 -2.358,-213.868 1.071,-213.5C4.516,-213.108 6.989,-210.002 6.596,-206.552C5.992,-201.239 3.024,-196.514 -1.762,-193.236C-7.018,-189.648 -13.688,-188.422 -19.577,-189.967C-29.312,-192.533 -36.943,-201.402 -39.02,-212.576C-42.396,-230.723 -30.097,-249.99 -11.608,-255.524C-7.851,-256.652 -3.94,-257.191 0,-257.191Z" style="fill:white;fill-rule:nonzero;stroke:white;stroke-width:5px;stroke-linejoin:miter;stroke-miterlimit:10;"/>
                </g>
            </g>
            <g transform="matrix(-1,-1.22465e-16,1.22465e-16,-1,592.513,359.493)">
                <g transform="matrix(0.177081,0,0,0.177081,546.928,106.028)">
                    <path d="M0,-139.623C1.831,-139.623 3.646,-138.822 4.884,-137.293C5.195,-136.909 36.534,-98.572 79.931,-77.344C82.084,-76.29 83.45,-74.098 83.45,-71.704C83.45,-69.309 82.084,-67.118 79.931,-66.063C36.567,-44.843 5.881,-3.785 5.575,-3.367C3.515,-0.58 -0.434,0 -3.204,-2.06C-5.991,-4.12 -6.581,-8.051 -4.521,-10.839C-3.306,-12.482 23.546,-48.392 63.799,-71.679C23.59,-94.509 -3.646,-127.876 -4.88,-129.397C-7.059,-132.095 -6.638,-136.042 -3.944,-138.225C-2.783,-139.165 -1.386,-139.623 0,-139.623" style="fill:white;fill-rule:nonzero;stroke:white;stroke-width:5.65px;"/>
                </g>
                <g transform="matrix(0.177081,0,0,0.177081,546.928,106.028)">
                    <path d="M0,-139.623C1.831,-139.623 3.646,-138.822 4.884,-137.293C5.195,-136.909 36.534,-98.572 79.931,-77.344C82.084,-76.29 83.45,-74.098 83.45,-71.704C83.45,-69.309 82.084,-67.118 79.931,-66.063C36.567,-44.843 5.881,-3.785 5.575,-3.367C3.515,-0.58 -0.434,0 -3.204,-2.06C-5.991,-4.12 -6.581,-8.051 -4.521,-10.839C-3.306,-12.482 23.546,-48.392 63.799,-71.679C23.59,-94.509 -3.646,-127.876 -4.88,-129.397C-7.059,-132.095 -6.638,-136.042 -3.944,-138.225C-2.783,-139.165 -1.386,-139.623 0,-139.623Z" style="fill:white;fill-rule:nonzero;stroke:white;stroke-width:5px;stroke-linejoin:miter;stroke-miterlimit:10;"/>
                </g>
                <g transform="matrix(0.177081,0,0,0.177081,583.875,94.0003)">
                    <path d="M0,-3.064C-40.576,-12.464 -104.249,-37.649 -165.171,-104.963C-180.269,-84.536 -229.898,-23.335 -295.708,-3.668C-229.804,16.791 -180.13,80.509 -165.073,101.696C-104.146,34.341 -40.495,7.563 0,-3.064M-165.71,-121.304C-163.899,-121.304 -162.171,-120.519 -160.978,-119.145C-65.291,-9.244 41.227,-10.209 42.371,-10.061C45.587,-10.126 48.707,-7.38 48.776,-3.906C48.845,-0.448 46.095,2.421 42.633,2.495C41.563,2.519 -65.38,6.189 -160.978,115.993C-162.269,117.48 -164.219,118.24 -166.156,118.134C-168.122,117.995 -169.912,116.94 -170.982,115.282C-171.71,114.153 -245.033,2.495 -336.551,2.495C-340.016,2.495 -342.828,-0.317 -342.828,-3.783C-342.828,-7.25 -340.016,-10.061 -336.551,-10.061C-244.967,-10.061 -171.649,-117.445 -170.921,-118.532C-169.83,-120.151 -168.048,-121.172 -166.099,-121.287C-165.968,-121.295 -165.841,-121.304 -165.71,-121.304" style="fill:white;fill-rule:nonzero;stroke:white;stroke-width:5.65px;"/>
                </g>
                <g transform="matrix(0.177081,0,0,0.177081,583.875,94.0003)">
                    <path d="M0,-3.064C-40.576,-12.464 -104.249,-37.649 -165.171,-104.963C-180.269,-84.536 -229.898,-23.335 -295.708,-3.668C-229.804,16.791 -180.13,80.509 -165.073,101.696C-104.146,34.341 -40.495,7.563 0,-3.064ZM-165.71,-121.304C-163.899,-121.304 -162.171,-120.519 -160.978,-119.145C-65.291,-9.244 41.227,-10.209 42.371,-10.061C45.587,-10.126 48.707,-7.38 48.776,-3.906C48.845,-0.448 46.095,2.421 42.633,2.495C41.563,2.519 -65.38,6.189 -160.978,115.993C-162.269,117.48 -164.219,118.24 -166.156,118.134C-168.122,117.995 -169.912,116.94 -170.982,115.282C-171.71,114.153 -245.033,2.495 -336.551,2.495C-340.016,2.495 -342.828,-0.317 -342.828,-3.783C-342.828,-7.25 -340.016,-10.061 -336.551,-10.061C-244.967,-10.061 -171.649,-117.445 -170.921,-118.532C-169.83,-120.151 -168.048,-121.172 -166.099,-121.287C-165.968,-121.295 -165.841,-121.304 -165.71,-121.304Z" style="fill:white;fill-rule:nonzero;stroke:white;stroke-width:5px;stroke-linejoin:miter;stroke-miterlimit:10;"/>
                </g>
                <g transform="matrix(0.241312,0,0,0.177081,93.6916,94.4421)">
                    <path d="M0,-12.556L1782.48,-12.556C1785.67,-12.556 1788.52,-10.262 1788.91,-7.096C1789.4,-3.265 1786.42,0 1782.69,0L0.264,0C-2.959,0 -5.854,-2.313 -6.232,-5.514C-6.683,-9.321 -3.718,-12.556 0,-12.556Z" style="fill:white;fill-rule:nonzero;stroke:white;stroke-width:5px;stroke-linejoin:miter;stroke-miterlimit:10;"/>
                </g>
                <g transform="matrix(0.177081,0,0,0.177081,505.606,116.4)">
                    <path d="M0,-257.191C13.667,-257.191 27.661,-250.659 36.71,-239.371C56.909,-214.17 50.492,-176.046 32.962,-155.177C23.672,-144.118 10.855,-135.592 -3.896,-130.279C10.859,-124.958 23.672,-116.432 32.962,-105.372C50.492,-84.504 56.909,-46.379 36.71,-21.178C25.054,-6.636 5.19,0 -11.611,-5.026C-30.097,-10.561 -42.396,-29.826 -39.02,-47.973C-36.943,-59.148 -29.312,-68.016 -19.577,-70.583C-13.679,-72.128 -7.018,-70.902 -1.762,-67.314C3.024,-64.035 5.992,-59.311 6.596,-53.998C6.989,-50.548 4.516,-47.442 1.071,-47.05C-2.404,-46.747 -5.489,-49.134 -5.877,-52.575C-6.131,-54.783 -7.847,-56.262 -8.849,-56.949C-11.117,-58.493 -14.015,-59.083 -16.381,-58.436C-21.286,-57.145 -25.52,-51.905 -26.677,-45.685C-28.875,-33.848 -20.326,-20.745 -8.011,-17.058C4.021,-13.437 18.375,-18.375 26.909,-29.025C42.62,-48.627 37.752,-80.147 23.349,-97.296C9.42,-113.881 -14.109,-123.797 -39.829,-124.001C-40.368,-124.009 -40.904,-124.009 -41.435,-124.001C-44.884,-124.025 -47.668,-126.83 -47.668,-130.279C-47.668,-133.728 -44.884,-136.532 -41.435,-136.557L-39.829,-136.557C-14.109,-136.745 9.42,-146.668 23.349,-163.254C37.752,-180.403 42.62,-211.922 26.909,-231.524C18.375,-242.167 4.014,-247.096 -8.007,-243.491C-20.326,-239.805 -28.875,-226.701 -26.677,-214.865C-25.52,-208.645 -21.286,-203.405 -16.381,-202.113C-14.007,-201.468 -11.113,-202.056 -8.849,-203.602C-7.847,-204.288 -6.131,-205.768 -5.877,-207.974C-5.485,-211.416 -2.358,-213.868 1.071,-213.5C4.516,-213.108 6.989,-210.002 6.596,-206.552C5.992,-201.239 3.024,-196.514 -1.762,-193.236C-7.018,-189.648 -13.688,-188.422 -19.577,-189.967C-29.312,-192.533 -36.943,-201.402 -39.02,-212.576C-42.396,-230.723 -30.097,-249.99 -11.608,-255.524C-7.851,-256.652 -3.94,-257.191 0,-257.191" style="fill:white;fill-rule:nonzero;stroke:white;stroke-width:5.65px;"/>
                </g>
                <g transform="matrix(0.177081,0,0,0.177081,505.606,116.4)">
                    <path d="M0,-257.191C13.667,-257.191 27.661,-250.659 36.71,-239.371C56.909,-214.17 50.492,-176.046 32.962,-155.177C23.672,-144.118 10.855,-135.592 -3.896,-130.279C10.859,-124.958 23.672,-116.432 32.962,-105.372C50.492,-84.504 56.909,-46.379 36.71,-21.178C25.054,-6.636 5.19,0 -11.611,-5.026C-30.097,-10.561 -42.396,-29.826 -39.02,-47.973C-36.943,-59.148 -29.312,-68.016 -19.577,-70.583C-13.679,-72.128 -7.018,-70.902 -1.762,-67.314C3.024,-64.035 5.992,-59.311 6.596,-53.998C6.989,-50.548 4.516,-47.442 1.071,-47.05C-2.404,-46.747 -5.489,-49.134 -5.877,-52.575C-6.131,-54.783 -7.847,-56.262 -8.849,-56.949C-11.117,-58.493 -14.015,-59.083 -16.381,-58.436C-21.286,-57.145 -25.52,-51.905 -26.677,-45.685C-28.875,-33.848 -20.326,-20.745 -8.011,-17.058C4.021,-13.437 18.375,-18.375 26.909,-29.025C42.62,-48.627 37.752,-80.147 23.349,-97.296C9.42,-113.881 -14.109,-123.797 -39.829,-124.001C-40.368,-124.009 -40.904,-124.009 -41.435,-124.001C-44.884,-124.025 -47.668,-126.83 -47.668,-130.279C-47.668,-133.728 -44.884,-136.532 -41.435,-136.557L-39.829,-136.557C-14.109,-136.745 9.42,-146.668 23.349,-163.254C37.752,-180.403 42.62,-211.922 26.909,-231.524C18.375,-242.167 4.014,-247.096 -8.007,-243.491C-20.326,-239.805 -28.875,-226.701 -26.677,-214.865C-25.52,-208.645 -21.286,-203.405 -16.381,-202.113C-14.007,-201.468 -11.113,-202.056 -8.849,-203.602C-7.847,-204.288 -6.131,-205.768 -5.877,-207.974C-5.485,-211.416 -2.358,-213.868 1.071,-213.5C4.516,-213.108 6.989,-210.002 6.596,-206.552C5.992,-201.239 3.024,-196.514 -1.762,-193.236C-7.018,-189.648 -13.688,-188.422 -19.577,-189.967C-29.312,-192.533 -36.943,-201.402 -39.02,-212.576C-42.396,-230.723 -30.097,-249.99 -11.608,-255.524C-7.851,-256.652 -3.94,-257.191 0,-257.191Z" style="fill:white;fill-rule:nonzero;stroke:white;stroke-width:5px;stroke-linejoin:miter;stroke-miterlimit:10;"/>
                </g>
            </g>
        </g>
    </g>
</svg>
