<?xml version="1.0" encoding="UTF-8" standalone="no"?>
<!DOCTYPE svg PUBLIC "-//W3C//DTD SVG 1.1//EN" "http://www.w3.org/Graphics/SVG/1.1/DTD/svg11.dtd">
<svg width="100%" height="100%" viewBox="0 0 1280 176" version="1.1" xmlns="http://www.w3.org/2000/svg" xmlns:xlink="http://www.w3.org/1999/xlink" xml:space="preserve" xmlns:serif="http://www.serif.com/" style="fill-rule:evenodd;clip-rule:evenodd;stroke-miterlimit:10;">
    <rect id="Artboard1" x="-0" y="-0" width="1280" height="175.686" style="fill:none;"/>
    <clipPath id="_clip1">
        <rect id="Artboard11" serif:id="Artboard1" x="-0" y="-0" width="1280" height="175.686"/>
    </clipPath>
    <g clip-path="url(#_clip1)">
        <g transform="matrix(0.177081,0,0,0.177081,1,1)">
            <g>
                <g transform="matrix(7499.89,0,0,-7499.89,-132.742,503.502)">
                    <rect x="0.018" y="-0.065" width="0.964" height="0.132" style="fill:url(#_Linear2);"/>
                </g>
                <g>
                    <g>
                        <path d="M2575.89,667.013C2601.09,657.679 2627.11,653.479 2653.94,654.413C2680.77,655.346 2707.72,658.613 2734.79,664.213C2773.06,585.813 2815.06,509.629 2860.79,435.663C2906.52,361.696 2956.92,290.413 3011.99,221.813C3013.86,219.479 3016.19,216.329 3018.99,212.363C3021.79,208.396 3024.94,204.779 3028.44,201.513C3031.94,198.246 3035.56,196.263 3039.29,195.563C3043.02,194.863 3046.76,196.613 3050.49,200.813C3053.76,204.546 3054.81,208.629 3053.64,213.063C3052.47,217.496 3050.26,221.929 3046.99,226.363C3043.72,230.796 3040.22,234.879 3036.49,238.613C3032.76,242.346 3029.96,245.613 3028.09,248.413C3012.69,268.479 2997.64,288.546 2982.94,308.613C2968.24,328.679 2953.66,348.979 2939.19,369.513C2909.32,411.979 2880.62,454.446 2853.09,496.913C2825.56,539.379 2799.19,583.246 2773.99,628.513L2752.29,668.413C2770.02,672.613 2787.52,677.163 2804.79,682.063C2822.06,686.963 2838.86,691.513 2855.19,695.713C2880.39,702.246 2905.47,708.196 2930.44,713.563C2955.41,718.929 2980.72,722.779 3006.39,725.113C3018.06,726.513 3029.49,727.329 3040.69,727.563C3051.89,727.796 3063.09,727.679 3074.29,727.213C3077.56,727.213 3081.29,726.746 3085.49,725.813C3089.69,724.879 3093.89,724.296 3098.09,724.063C3102.29,723.829 3106.02,724.296 3109.29,725.463C3112.56,726.629 3114.89,729.313 3116.29,733.513C3117.69,738.646 3117.57,742.496 3115.94,745.063C3114.31,747.629 3111.86,749.496 3108.59,750.663C3105.32,751.829 3101.59,752.646 3097.39,753.113C3093.19,753.579 3089.46,754.046 3086.19,754.513C3074.06,756.846 3061.69,757.896 3049.09,757.663C3036.49,757.429 3024.12,756.846 3011.99,755.913C2985.39,753.579 2959.02,749.029 2932.89,742.263C2906.76,735.496 2880.86,728.146 2855.19,720.213C2836.52,714.146 2817.97,708.079 2799.54,702.013C2781.11,695.946 2762.32,690.346 2743.19,685.213C2742.26,687.079 2741.32,688.829 2740.39,690.463C2739.46,692.096 2738.52,693.846 2737.59,695.713C2735.26,699.913 2732.92,704.113 2730.59,708.313C2728.26,712.513 2725.92,716.713 2723.59,720.913C2722.66,723.246 2721.26,724.646 2719.39,725.113C2717.52,725.579 2715.66,725.579 2713.79,725.113C2711.92,724.646 2710.64,723.713 2709.94,722.313C2709.24,720.913 2709.36,719.046 2710.29,716.713L2727.09,681.013C2721.96,679.613 2716.82,678.329 2711.69,677.163C2706.56,675.996 2701.42,674.946 2696.29,674.013C2684.62,671.679 2673.19,669.929 2661.99,668.763C2650.79,667.596 2639.36,667.479 2627.69,668.413C2622.56,669.346 2617.54,670.046 2612.64,670.513C2607.74,670.979 2602.72,672.146 2597.59,674.013C2596.19,674.479 2594.44,675.179 2592.34,676.113C2590.24,677.046 2588.14,677.979 2586.04,678.913C2583.94,679.846 2581.72,680.429 2579.39,680.663C2577.06,680.896 2575.19,680.546 2573.79,679.613C2571.46,677.746 2570.52,675.413 2570.99,672.613C2571.46,669.813 2573.09,667.946 2575.89,667.013Z" style="fill:white;fill-rule:nonzero;"/>
                        <path d="M3080.59,510.913C3084.79,515.113 3087.36,520.946 3088.29,528.413C3092.96,527.013 3096.92,527.479 3100.19,529.813C3103.46,532.146 3104.16,534.246 3102.29,536.113C3100.42,537.979 3098.79,539.846 3097.39,541.713C3093.19,548.246 3088.52,554.196 3083.39,559.563C3078.26,564.929 3073.36,570.646 3068.69,576.713C3065.89,579.979 3062.51,583.946 3058.54,588.613C3054.57,593.279 3050.49,598.413 3046.29,604.013C3042.09,609.613 3038.24,615.329 3034.74,621.163C3031.24,626.996 3029.02,632.479 3028.09,637.613C3027.16,642.746 3027.74,646.479 3029.84,648.813C3031.94,651.146 3035.79,651.379 3041.39,649.513C3046.52,648.113 3051.66,645.779 3056.79,642.513C3061.92,639.246 3066.36,636.446 3070.09,634.113C3080.82,626.179 3091.21,617.546 3101.24,608.213C3111.27,598.879 3120.96,589.313 3130.29,579.513C3131.22,578.579 3132.39,577.063 3133.79,574.963C3135.19,572.863 3136.71,570.996 3138.34,569.363C3139.97,567.729 3141.72,566.213 3143.59,564.813C3145.46,563.413 3147.32,562.946 3149.19,563.413C3152.92,564.346 3154.91,565.746 3155.14,567.613C3155.37,569.479 3154.91,571.463 3153.74,573.563C3152.57,575.663 3150.94,577.763 3148.84,579.863C3146.74,581.963 3145.46,583.479 3144.99,584.413C3135.66,594.679 3126.09,604.479 3116.29,613.813C3106.49,623.146 3096.22,631.779 3085.49,639.713C3080.36,643.446 3073.36,647.763 3064.49,652.663C3055.62,657.563 3047.11,660.713 3038.94,662.113C3030.77,663.513 3023.89,662.463 3018.29,658.963C3012.69,655.463 3010.82,647.179 3012.69,634.113C3014.09,624.313 3016.89,613.579 3021.09,601.913L2997.29,625.013C2993.56,628.279 2987.26,633.296 2978.39,640.063C2969.52,646.829 2960.31,652.313 2950.74,656.513C2941.17,660.713 2932.66,662.113 2925.19,660.713C2917.72,659.313 2913.29,652.313 2911.89,639.713C2910.49,627.113 2912.59,614.979 2918.19,603.313C2923.79,591.646 2931.14,580.679 2940.24,570.413C2949.34,560.146 2959.49,550.929 2970.69,542.763C2981.89,534.596 2992.39,527.946 3002.19,522.813C3006.86,520.479 3012.69,517.679 3019.69,514.413C3026.69,511.146 3033.81,508.579 3041.04,506.713C3048.27,504.846 3055.39,504.029 3062.39,504.263C3069.39,504.496 3075.46,506.713 3080.59,510.913ZM3041.39,562.713C3046.52,556.179 3051.77,550.346 3057.14,545.213C3062.51,540.079 3068.46,536.113 3074.99,533.313C3075.46,527.713 3074.06,523.979 3070.79,522.113C3067.52,520.246 3063.56,519.546 3058.89,520.013C3054.22,520.479 3049.32,521.529 3044.19,523.163C3039.06,524.796 3034.86,526.546 3031.59,528.413C3011.99,539.613 2994.49,554.079 2979.09,571.813C2976.29,574.613 2971.62,579.746 2965.09,587.213C2958.56,594.679 2952.14,602.496 2945.84,610.663C2939.54,618.829 2934.64,626.413 2931.14,633.413C2927.64,640.413 2927.76,644.846 2931.49,646.713C2937.09,648.579 2943.04,648.229 2949.34,645.663C2955.64,643.096 2961.71,639.596 2967.54,635.163C2973.37,630.729 2978.97,626.063 2984.34,621.163C2989.71,616.263 2994.26,611.946 2997.99,608.213C3005.46,601.679 3012.69,594.446 3019.69,586.513C3026.69,578.579 3033.92,570.646 3041.39,562.713Z" style="fill:white;fill-rule:nonzero;"/>
                        <path d="M3639.89,256.813C3630.56,260.079 3621.81,265.329 3613.64,272.563C3605.47,279.796 3597.89,287.846 3590.89,296.713C3583.89,305.579 3577.36,314.796 3571.29,324.363C3565.22,333.929 3559.62,342.446 3554.49,349.913C3540.49,370.913 3526.72,392.029 3513.19,413.263C3499.66,434.496 3486.12,455.613 3472.59,476.613C3457.66,499.479 3442.49,521.879 3427.09,543.813C3411.69,565.746 3395.12,586.979 3377.39,607.513C3372.26,613.579 3366.42,620.229 3359.89,627.463C3353.36,634.696 3346.36,641.229 3338.89,647.063C3331.42,652.896 3323.49,657.329 3315.09,660.363C3306.69,663.396 3298.06,663.746 3289.19,661.413C3277.99,656.279 3270.76,648.229 3267.49,637.263C3264.22,626.296 3263.29,614.279 3264.69,601.213C3266.09,588.146 3268.77,575.313 3272.74,562.713C3276.71,550.113 3280.32,539.613 3283.59,531.213C3292.92,506.013 3304.24,481.629 3317.54,458.063C3330.84,434.496 3345.89,412.213 3362.69,391.213C3394.89,350.146 3432.22,313.863 3474.69,282.363C3517.16,250.863 3563.59,227.646 3613.99,212.713C3629.39,208.046 3646.31,203.846 3664.74,200.113C3683.17,196.379 3701.72,194.163 3720.39,193.463C3739.06,192.763 3757.49,194.046 3775.69,197.313C3793.89,200.579 3810.46,206.646 3825.39,215.513C3844.52,227.179 3855.26,242.229 3857.59,260.663C3859.92,279.096 3856.19,297.413 3846.39,315.613C3834.72,337.079 3818.27,354.813 3797.04,368.813C3775.81,382.813 3754.22,394.013 3732.29,402.413C3724.36,406.146 3716.19,409.179 3707.79,411.513C3699.39,413.846 3690.76,416.179 3681.89,418.513C3691.22,423.646 3700.32,430.413 3709.19,438.813C3718.06,447.679 3724.94,457.596 3729.84,468.563C3734.74,479.529 3737.89,490.963 3739.29,502.863C3740.69,514.763 3740.34,526.663 3738.24,538.563C3736.14,550.463 3732.52,562.013 3727.39,573.213C3718.99,590.946 3707.44,606.113 3692.74,618.713C3678.04,631.313 3661.82,641.229 3644.09,648.463C3626.36,655.696 3607.69,660.246 3588.09,662.113C3568.49,663.979 3549.36,663.513 3530.69,660.713C3509.22,656.979 3490.09,649.746 3473.29,639.013C3468.16,636.213 3463.49,632.946 3459.29,629.213C3455.09,625.479 3450.89,621.746 3446.69,618.013C3444.36,615.679 3440.97,612.413 3436.54,608.213C3432.11,604.013 3429.66,600.046 3429.19,596.313C3426.86,592.113 3427.67,588.963 3431.64,586.863C3435.61,584.763 3438.76,585.579 3441.09,589.313C3445.29,596.313 3450.42,602.846 3456.49,608.913C3464.42,617.779 3473.76,625.246 3484.49,631.313C3495.22,637.379 3506.42,641.813 3518.09,644.613C3536.29,648.346 3555.07,649.046 3574.44,646.713C3593.81,644.379 3612.01,639.246 3629.04,631.313C3646.07,623.379 3661.24,612.763 3674.54,599.463C3687.84,586.163 3697.52,570.179 3703.59,551.513C3707.32,540.313 3709.19,528.996 3709.19,517.563C3709.19,506.129 3707.44,495.279 3703.94,485.013C3700.44,474.746 3695.07,465.179 3687.84,456.313C3680.61,447.446 3671.86,439.979 3661.59,433.913C3654.59,430.179 3648.52,427.379 3643.39,425.513C3632.19,426.913 3620.99,427.729 3609.79,427.963C3598.59,428.196 3587.62,427.846 3576.89,426.913C3575.49,426.913 3572.11,426.679 3566.74,426.213C3561.37,425.746 3556.24,424.813 3551.34,423.413C3546.44,422.013 3542.71,420.029 3540.14,417.463C3537.57,414.896 3538.16,411.513 3541.89,407.313C3547.02,402.646 3553.91,400.079 3562.54,399.613C3571.17,399.146 3578.76,398.913 3585.29,398.913C3586.69,399.846 3589.96,399.963 3595.09,399.263C3600.22,398.563 3603.26,398.213 3604.19,398.213C3610.72,399.146 3617.14,399.846 3623.44,400.313C3629.74,400.779 3635.92,401.713 3641.99,403.113C3644.32,404.046 3646.77,404.746 3649.34,405.213C3651.91,405.679 3654.36,406.379 3656.69,407.313C3664.16,405.913 3671.39,404.163 3678.39,402.063C3685.39,399.963 3692.39,397.746 3699.39,395.413C3722.26,387.013 3744.07,375.463 3764.84,360.763C3785.61,346.063 3801.36,327.279 3812.09,304.413C3816.76,295.079 3819.56,285.746 3820.49,276.413C3821.42,267.079 3820.49,258.446 3817.69,250.513C3814.89,242.579 3810.11,235.463 3803.34,229.163C3796.57,222.863 3788.06,218.079 3777.79,214.813C3763.32,209.679 3748.16,207.463 3732.29,208.163C3716.42,208.863 3701.02,210.379 3686.09,212.713C3659.49,216.913 3633.82,223.796 3609.09,233.363C3584.36,242.929 3560.67,254.596 3538.04,268.363C3515.41,282.129 3493.94,297.646 3473.64,314.913C3453.34,332.179 3434.32,350.613 3416.59,370.213C3398.86,389.346 3382.41,409.179 3367.24,429.713C3352.07,450.246 3337.96,471.713 3324.89,494.113C3318.36,504.846 3312.41,515.813 3307.04,527.013C3301.67,538.213 3296.89,549.879 3292.69,562.013C3288.49,572.746 3284.76,584.646 3281.49,597.713C3278.22,610.779 3278.46,623.146 3282.19,634.813C3284.99,642.746 3288.84,647.296 3293.74,648.463C3298.64,649.629 3304.12,648.813 3310.19,646.013C3316.26,643.213 3322.56,638.779 3329.09,632.713C3335.62,626.646 3341.81,620.463 3347.64,614.163C3353.47,607.863 3358.49,601.913 3362.69,596.313C3366.89,590.713 3369.92,586.746 3371.79,584.413C3389.06,560.613 3405.27,536.229 3420.44,511.263C3435.61,486.296 3450.89,461.213 3466.29,436.013C3480.76,412.679 3495.81,389.579 3511.44,366.713C3527.07,343.846 3543.76,321.913 3561.49,300.913C3569.42,292.046 3577.59,283.413 3585.99,275.013C3594.39,266.613 3603.72,259.146 3613.99,252.613C3616.32,251.213 3619.71,249.229 3624.14,246.663C3628.57,244.096 3632.42,243.046 3635.69,243.513C3639.89,242.579 3642.57,244.096 3643.74,248.063C3644.91,252.029 3643.62,254.946 3639.89,256.813ZM3563.59,413.613C3568.26,414.546 3573.16,415.129 3578.29,415.363C3583.42,415.596 3588.56,415.479 3593.69,415.013C3588.56,414.546 3583.54,414.079 3578.64,413.613C3573.74,413.146 3568.72,413.146 3563.59,413.613Z" style="fill:white;fill-rule:nonzero;"/>
                        <path d="M3872.99,503.913C3874.39,504.379 3876.02,505.546 3877.89,507.413C3880.22,506.479 3882.44,505.779 3884.54,505.313C3886.64,504.846 3888.86,504.846 3891.19,505.313C3899.59,506.713 3904.26,510.679 3905.19,517.213C3906.12,523.746 3904.96,531.213 3901.69,539.613C3898.42,548.013 3893.76,556.879 3887.69,566.213C3881.62,575.546 3876.02,583.713 3870.89,590.713C3872.76,591.179 3874.51,591.529 3876.14,591.763C3877.77,591.996 3879.76,592.113 3882.09,592.113C3887.22,592.113 3892.24,591.063 3897.14,588.963C3902.04,586.863 3906.59,584.413 3910.79,581.613C3914.52,579.279 3918.14,576.246 3921.64,572.513C3925.14,568.779 3928.29,565.513 3931.09,562.713C3934.36,559.446 3937.04,558.629 3939.14,560.263C3941.24,561.896 3941.36,565.279 3939.49,570.413C3938.56,573.679 3935.64,577.763 3930.74,582.663C3925.84,587.563 3921.99,590.946 3919.19,592.813C3911.26,598.413 3902.39,602.496 3892.59,605.063C3882.79,607.629 3873.22,606.813 3863.89,602.613C3862.96,602.613 3862.49,602.379 3862.49,601.913L3858.29,606.813C3853.62,611.946 3847.79,618.363 3840.79,626.063C3833.79,633.763 3826.21,640.879 3818.04,647.413C3809.87,653.946 3801.36,658.963 3792.49,662.463C3783.62,665.963 3774.99,665.846 3766.59,662.113C3755.39,657.446 3748.97,650.329 3747.34,640.763C3745.71,631.196 3746.64,621.046 3750.14,610.313C3753.64,599.579 3758.42,589.313 3764.49,579.513C3770.56,569.713 3775.92,562.013 3780.59,556.413C3788.99,546.613 3798.32,537.163 3808.59,528.063C3818.86,518.963 3830.06,511.846 3842.19,506.713C3846.86,504.379 3851.87,502.863 3857.24,502.163C3862.61,501.463 3867.86,502.046 3872.99,503.913ZM3846.39,549.413C3847.79,545.213 3849.89,540.196 3852.69,534.363C3855.49,528.529 3858.99,523.279 3863.19,518.613C3857.59,519.546 3852.11,521.763 3846.74,525.263C3841.37,528.763 3836.24,532.963 3831.34,537.863C3826.44,542.763 3822.01,547.663 3818.04,552.563C3814.07,557.463 3810.69,561.546 3807.89,564.813C3802.29,571.346 3797.16,578.463 3792.49,586.163C3787.82,593.863 3783.86,601.679 3780.59,609.613C3780.12,611.013 3779.31,613.346 3778.14,616.613C3776.97,619.879 3776.04,623.379 3775.34,627.113C3774.64,630.846 3774.17,634.346 3773.94,637.613C3773.71,640.879 3774.29,642.746 3775.69,643.213C3780.36,647.413 3786.19,648.346 3793.19,646.013C3800.19,643.679 3807.31,639.713 3814.54,634.113C3821.77,628.513 3828.66,621.979 3835.19,614.513C3841.72,607.046 3847.32,600.513 3851.99,594.913C3846.86,588.846 3843.94,581.729 3843.24,573.563C3842.54,565.396 3843.59,557.346 3846.39,549.413ZM3860.39,550.813C3858.06,556.879 3856.89,562.829 3856.89,568.663C3856.89,574.496 3858.29,579.279 3861.09,583.013C3863.89,579.746 3867.27,575.429 3871.24,570.063C3875.21,564.696 3878.82,559.096 3882.09,553.263C3885.36,547.429 3887.92,541.596 3889.79,535.763C3891.66,529.929 3891.89,524.913 3890.49,520.713C3889.56,517.913 3887.57,517.796 3884.54,520.363C3881.51,522.929 3878.24,526.313 3874.74,530.513C3871.24,534.713 3868.09,538.913 3865.29,543.113C3862.49,547.313 3860.86,549.879 3860.39,550.813Z" style="fill:white;fill-rule:nonzero;"/>
                        <path d="M3931.09,650.213C3937.62,655.813 3945.21,658.146 3953.84,657.213C3962.47,656.279 3971.22,653.713 3980.09,649.513C3988.96,645.313 3997.36,640.296 4005.29,634.463C4013.22,628.629 4019.76,623.613 4024.89,619.413C4040.29,607.279 4054.76,594.213 4068.29,580.213C4070.62,578.346 4072.96,575.896 4075.29,572.863C4077.62,569.829 4079.96,567.379 4082.29,565.513C4086.02,562.713 4089.29,562.713 4092.09,565.513C4094.89,568.313 4095.12,571.579 4092.79,575.313C4089.52,580.913 4084.27,586.979 4077.04,593.513C4069.81,600.046 4063.62,605.413 4058.49,609.613C4050.09,617.546 4041.34,625.013 4032.24,632.013C4023.14,639.013 4013.46,645.546 4003.19,651.613C3997.59,654.879 3991.17,658.263 3983.94,661.763C3976.71,665.263 3969.24,668.063 3961.54,670.163C3953.84,672.263 3946.14,673.313 3938.44,673.313C3930.74,673.313 3923.62,671.446 3917.09,667.713C3905.89,661.646 3899.47,653.479 3897.84,643.213C3896.21,632.946 3897.26,622.213 3900.99,611.013C3904.72,599.813 3910.09,589.196 3917.09,579.163C3924.09,569.129 3930.39,560.846 3935.99,554.313C3941.59,548.246 3948.82,541.013 3957.69,532.613C3966.56,524.213 3976.12,516.629 3986.39,509.863C3996.66,503.096 4007.04,497.963 4017.54,494.463C4028.04,490.963 4037.96,491.313 4047.29,495.513C4056.16,500.179 4059.42,506.363 4057.09,514.063C4054.76,521.763 4049.97,529.696 4042.74,537.863C4035.51,546.029 4027.57,553.379 4018.94,559.913C4010.31,566.446 4004.36,571.113 4001.09,573.913C3992.69,579.979 3983.94,585.813 3974.84,591.413C3965.74,597.013 3956.29,601.913 3946.49,606.113C3944.16,607.046 3941.47,608.329 3938.44,609.963C3935.41,611.596 3932.26,612.879 3928.99,613.813C3926.19,620.346 3924.79,626.763 3924.79,633.063C3924.79,639.363 3926.66,644.846 3930.39,649.513C3930.39,649.979 3930.62,650.213 3931.09,650.213ZM3952.09,574.613C3949.76,577.413 3947.31,580.679 3944.74,584.413C3942.17,588.146 3939.72,592.113 3937.39,596.313C3949.52,592.579 3961.19,586.979 3972.39,579.513C3983.59,572.046 3993.86,564.579 4003.19,557.113C4005.06,555.713 4009.14,551.979 4015.44,545.913C4021.74,539.846 4027.57,533.663 4032.94,527.363C4038.31,521.063 4041.46,515.813 4042.39,511.613C4043.32,507.413 4039.12,506.246 4029.79,508.113C4021.86,509.979 4014.16,513.246 4006.69,517.913C3999.22,522.579 3992.22,528.063 3985.69,534.363C3979.16,540.663 3973.09,547.313 3967.49,554.313C3961.89,561.313 3956.76,568.079 3952.09,574.613ZM3931.09,650.213C3930.62,650.213 3930.39,649.979 3930.39,649.513L3931.09,650.213Z" style="fill:white;fill-rule:nonzero;"/>
                        <path d="M4365.79,527.713C4363.92,529.579 4360.66,533.779 4355.99,540.313C4351.32,546.846 4345.96,554.546 4339.89,563.413C4333.82,572.279 4327.64,581.613 4321.34,591.413C4315.04,601.213 4309.32,610.313 4304.19,618.713C4299.06,627.113 4294.86,634.113 4291.59,639.713C4288.32,645.313 4287.16,648.346 4288.09,648.813C4293.22,650.679 4298.71,650.679 4304.54,648.813C4310.37,646.946 4316.21,644.029 4322.04,640.063C4327.87,636.096 4333.24,631.896 4338.14,627.463C4343.04,623.029 4347.36,619.413 4351.09,616.613C4359.96,608.679 4368.59,600.629 4376.99,592.463C4385.39,584.296 4393.56,575.546 4401.49,566.213C4403.82,563.879 4406.86,563.179 4410.59,564.113C4414.32,565.046 4415.72,567.613 4414.79,571.813C4413.86,575.546 4411.41,579.163 4407.44,582.663C4403.47,586.163 4400.32,589.079 4397.99,591.413C4388.66,600.746 4379.09,609.963 4369.29,619.063C4359.49,628.163 4349.22,636.679 4338.49,644.613C4334.76,646.946 4330.32,649.746 4325.19,653.013C4320.06,656.279 4314.69,658.963 4309.09,661.063C4303.49,663.163 4298.01,664.329 4292.64,664.563C4287.27,664.796 4282.49,663.046 4278.29,659.313C4274.09,655.579 4271.76,650.679 4271.29,644.613C4270.82,638.546 4271.41,632.129 4273.04,625.363C4274.67,618.596 4276.89,612.179 4279.69,606.113C4282.49,600.046 4284.82,595.146 4286.69,591.413C4291.82,582.079 4297.66,572.979 4304.19,564.113C4310.72,555.246 4317.96,546.846 4325.89,538.913C4317.96,543.113 4310.49,548.129 4303.49,553.963C4296.49,559.796 4290.19,565.279 4284.59,570.413C4269.66,583.013 4255.54,596.429 4242.24,610.663C4228.94,624.896 4215.06,638.546 4200.59,651.613C4199.19,653.013 4196.97,654.879 4193.94,657.213C4190.91,659.546 4187.76,661.413 4184.49,662.813C4181.22,664.213 4178.19,664.796 4175.39,664.563C4172.59,664.329 4170.49,662.113 4169.09,657.913C4168.16,654.646 4168.16,651.029 4169.09,647.063C4170.02,643.096 4171.54,639.013 4173.64,634.813C4175.74,630.613 4177.96,626.646 4180.29,622.913C4182.62,619.179 4184.49,615.913 4185.89,613.113C4186.36,611.713 4188.11,608.446 4191.14,603.313C4194.17,598.179 4197.79,592.346 4201.99,585.813C4206.19,579.279 4210.62,572.279 4215.29,564.813C4219.96,557.346 4224.39,550.579 4228.59,544.513C4232.79,538.446 4236.29,533.546 4239.09,529.813C4241.89,526.079 4243.76,524.446 4244.69,524.913C4244.69,524.446 4243.52,524.679 4241.19,525.613C4238.86,526.546 4236.29,527.713 4233.49,529.113C4230.69,530.513 4228.01,531.913 4225.44,533.313C4222.87,534.713 4221.36,535.413 4220.89,535.413C4212.49,541.946 4204.56,548.479 4197.09,555.013C4180.76,569.013 4165.12,583.946 4150.19,599.813C4142.72,607.746 4135.37,615.446 4128.14,622.913C4120.91,630.379 4113.32,637.846 4105.39,645.313C4102.12,648.579 4097.92,652.779 4092.79,657.913C4087.66,663.046 4082.29,665.146 4076.69,664.213C4070.62,662.813 4068.76,658.146 4071.09,650.213C4073.42,642.279 4077.39,633.763 4082.99,624.663C4088.59,615.563 4094.54,606.929 4100.84,598.763C4107.14,590.596 4111.22,585.346 4113.09,583.013L4145.29,535.413C4146.22,534.013 4147.04,532.496 4147.74,530.863C4148.44,529.229 4149.26,527.713 4150.19,526.313C4147.39,527.246 4145.06,528.179 4143.19,529.113L4120.09,548.713L4101.19,567.613C4097.46,571.346 4093.72,574.963 4089.99,578.463C4086.26,581.963 4083.46,584.413 4081.59,585.813C4078.79,588.146 4076.46,587.563 4074.59,584.063C4072.72,580.563 4072.72,577.179 4074.59,573.913C4075.06,572.513 4076.46,570.646 4078.79,568.313C4081.12,565.979 4083.57,563.646 4086.14,561.313C4088.71,558.979 4091.16,556.646 4093.49,554.313C4095.82,551.979 4097.46,550.346 4098.39,549.413C4112.39,535.413 4128.49,522.579 4146.69,510.913C4150.89,508.579 4155.32,506.829 4159.99,505.663C4164.66,504.496 4168.86,505.779 4172.59,509.513C4175.86,512.313 4177.72,515.813 4178.19,520.013C4178.66,524.213 4178.31,528.529 4177.14,532.963C4175.97,537.396 4174.22,541.596 4171.89,545.563C4169.56,549.529 4167.46,552.913 4165.59,555.713C4159.06,565.046 4152.29,573.913 4145.29,582.313C4138.29,590.713 4131.06,598.879 4123.59,606.813C4118.46,612.413 4112.74,618.246 4106.44,624.313C4100.14,630.379 4094.66,636.679 4089.99,643.213C4095.12,639.013 4101.19,633.413 4108.19,626.413C4115.19,619.413 4122.07,612.529 4128.84,605.763C4135.61,598.996 4141.56,592.929 4146.69,587.563C4151.82,582.196 4155.09,578.813 4156.49,577.413C4162.09,571.813 4167.92,565.746 4173.99,559.213C4180.06,552.679 4186.47,546.263 4193.24,539.963C4200.01,533.663 4206.89,528.063 4213.89,523.163C4220.89,518.263 4228.36,514.413 4236.29,511.613C4246.09,508.346 4252.62,508.929 4255.89,513.363C4259.16,517.796 4260.56,523.746 4260.09,531.213C4259.62,538.679 4257.99,546.496 4255.19,554.663C4252.39,562.829 4249.82,568.779 4247.49,572.513C4242.82,579.979 4237.92,587.213 4232.79,594.213C4227.66,601.213 4222.29,607.979 4216.69,614.513C4215.29,615.913 4213.19,617.896 4210.39,620.463C4207.59,623.029 4204.67,625.829 4201.64,628.863C4198.61,631.896 4195.57,635.046 4192.54,638.313C4189.51,641.579 4187.06,644.613 4185.19,647.413C4193.12,643.679 4200.71,637.613 4207.94,629.213C4215.17,620.813 4221.36,614.046 4226.49,608.913C4235.82,600.046 4245.04,591.296 4254.14,582.663C4263.24,574.029 4272.46,565.746 4281.79,557.813C4290.19,550.346 4298.94,543.229 4308.04,536.463C4317.14,529.696 4326.82,524.213 4337.09,520.013C4340.36,519.079 4344.32,517.679 4348.99,515.813C4353.66,513.946 4357.62,513.479 4360.89,514.413C4364.62,514.413 4366.96,516.046 4367.89,519.313C4369.29,522.579 4368.59,525.379 4365.79,527.713ZM4078.09,650.213L4080.19,650.213L4078.09,650.213Z" style="fill:white;fill-rule:nonzero;"/>
                        <path d="M4538.69,510.913C4542.89,515.113 4545.46,520.946 4546.39,528.413C4551.06,527.013 4555.02,527.479 4558.29,529.813C4561.56,532.146 4562.26,534.246 4560.39,536.113C4558.52,537.979 4556.89,539.846 4555.49,541.713C4551.29,548.246 4546.62,554.196 4541.49,559.563C4536.36,564.929 4531.46,570.646 4526.79,576.713C4523.99,579.979 4520.61,583.946 4516.64,588.613C4512.67,593.279 4508.59,598.413 4504.39,604.013C4500.19,609.613 4496.34,615.329 4492.84,621.163C4489.34,626.996 4487.12,632.479 4486.19,637.613C4485.26,642.746 4485.84,646.479 4487.94,648.813C4490.04,651.146 4493.89,651.379 4499.49,649.513C4504.62,648.113 4509.76,645.779 4514.89,642.513C4520.02,639.246 4524.46,636.446 4528.19,634.113C4538.92,626.179 4549.31,617.546 4559.34,608.213C4569.37,598.879 4579.06,589.313 4588.39,579.513C4589.32,578.579 4590.49,577.063 4591.89,574.963C4593.29,572.863 4594.81,570.996 4596.44,569.363C4598.07,567.729 4599.82,566.213 4601.69,564.813C4603.56,563.413 4605.42,562.946 4607.29,563.413C4611.02,564.346 4613.01,565.746 4613.24,567.613C4613.47,569.479 4613.01,571.463 4611.84,573.563C4610.67,575.663 4609.04,577.763 4606.94,579.863C4604.84,581.963 4603.56,583.479 4603.09,584.413C4593.76,594.679 4584.19,604.479 4574.39,613.813C4564.59,623.146 4554.32,631.779 4543.59,639.713C4538.46,643.446 4531.46,647.763 4522.59,652.663C4513.72,657.563 4505.21,660.713 4497.04,662.113C4488.87,663.513 4481.99,662.463 4476.39,658.963C4470.79,655.463 4468.92,647.179 4470.79,634.113C4472.19,624.313 4474.99,613.579 4479.19,601.913L4455.39,625.013C4451.66,628.279 4445.36,633.296 4436.49,640.063C4427.62,646.829 4418.41,652.313 4408.84,656.513C4399.27,660.713 4390.76,662.113 4383.29,660.713C4375.82,659.313 4371.39,652.313 4369.99,639.713C4368.59,627.113 4370.69,614.979 4376.29,603.313C4381.89,591.646 4389.24,580.679 4398.34,570.413C4407.44,560.146 4417.59,550.929 4428.79,542.763C4439.99,534.596 4450.49,527.946 4460.29,522.813C4464.96,520.479 4470.79,517.679 4477.79,514.413C4484.79,511.146 4491.91,508.579 4499.14,506.713C4506.37,504.846 4513.49,504.029 4520.49,504.263C4527.49,504.496 4533.56,506.713 4538.69,510.913ZM4499.49,562.713C4504.62,556.179 4509.87,550.346 4515.24,545.213C4520.61,540.079 4526.56,536.113 4533.09,533.313C4533.56,527.713 4532.16,523.979 4528.89,522.113C4525.62,520.246 4521.66,519.546 4516.99,520.013C4512.32,520.479 4507.42,521.529 4502.29,523.163C4497.16,524.796 4492.96,526.546 4489.69,528.413C4470.09,539.613 4452.59,554.079 4437.19,571.813C4434.39,574.613 4429.72,579.746 4423.19,587.213C4416.66,594.679 4410.24,602.496 4403.94,610.663C4397.64,618.829 4392.74,626.413 4389.24,633.413C4385.74,640.413 4385.86,644.846 4389.59,646.713C4395.19,648.579 4401.14,648.229 4407.44,645.663C4413.74,643.096 4419.81,639.596 4425.64,635.163C4431.47,630.729 4437.07,626.063 4442.44,621.163C4447.81,616.263 4452.36,611.946 4456.09,608.213C4463.56,601.679 4470.79,594.446 4477.79,586.513C4484.79,578.579 4492.02,570.646 4499.49,562.713Z" style="fill:white;fill-rule:nonzero;"/>
                    </g>
                </g>
                <g transform="matrix(1,0,0,1,521.78,449.705)">
                    <path d="M0,139.623C-1.831,139.623 -3.645,138.822 -4.884,137.293C-5.195,136.909 -36.534,98.572 -79.931,77.344C-82.085,76.29 -83.45,74.098 -83.45,71.704C-83.45,69.309 -82.085,67.118 -79.931,66.063C-36.567,44.843 -5.881,3.785 -5.575,3.367C-3.515,0.58 0.433,0 3.204,2.06C5.991,4.12 6.581,8.051 4.521,10.839C3.306,12.482 -23.546,48.391 -63.799,71.679C-23.59,94.509 3.646,127.876 4.88,129.397C7.059,132.095 6.638,136.042 3.944,138.225C2.783,139.165 1.386,139.623 0,139.623" style="fill:white;fill-rule:nonzero;"/>
                </g>
                <g transform="matrix(1,0,0,1,521.78,449.705)">
                    <path d="M0,139.623C-1.831,139.623 -3.645,138.822 -4.884,137.293C-5.195,136.909 -36.534,98.572 -79.931,77.344C-82.085,76.29 -83.45,74.098 -83.45,71.704C-83.45,69.309 -82.085,67.118 -79.931,66.063C-36.567,44.843 -5.881,3.785 -5.575,3.367C-3.515,0.58 0.433,0 3.204,2.06C5.991,4.12 6.581,8.051 4.521,10.839C3.306,12.482 -23.546,48.391 -63.799,71.679C-23.59,94.509 3.646,127.876 4.88,129.397C7.059,132.095 6.638,136.042 3.944,138.225C2.783,139.165 1.386,139.623 0,139.623Z" style="fill:none;fill-rule:nonzero;stroke:white;stroke-width:5px;"/>
                </g>
                <g transform="matrix(1,0,0,1,313.135,517.624)">
                    <path d="M0,3.065C40.576,12.465 104.249,37.65 165.171,104.964C180.269,84.537 229.898,23.336 295.708,3.669C229.805,-16.79 180.13,-80.508 165.073,-101.695C104.146,-34.34 40.495,-7.562 0,3.065M165.71,121.305C163.9,121.305 162.171,120.52 160.978,119.146C65.291,9.245 -41.226,10.209 -42.371,10.062C-45.587,10.127 -48.706,7.381 -48.776,3.907C-48.845,0.449 -46.095,-2.42 -42.633,-2.494C-41.562,-2.518 65.381,-6.188 160.978,-115.992C162.269,-117.479 164.219,-118.24 166.156,-118.133C168.122,-117.994 169.912,-116.939 170.983,-115.281C171.71,-114.152 245.033,-2.494 336.551,-2.494C340.016,-2.494 342.829,0.318 342.829,3.784C342.829,7.251 340.016,10.062 336.551,10.062C244.967,10.062 171.649,117.446 170.922,118.533C169.83,120.152 168.048,121.173 166.099,121.288C165.968,121.296 165.842,121.305 165.71,121.305" style="fill:white;fill-rule:nonzero;"/>
                </g>
                <g transform="matrix(1,0,0,1,313.135,517.624)">
                    <path d="M0,3.065C40.576,12.465 104.249,37.65 165.171,104.964C180.269,84.537 229.898,23.336 295.708,3.669C229.805,-16.79 180.13,-80.508 165.073,-101.695C104.146,-34.34 40.495,-7.562 0,3.065ZM165.71,121.305C163.9,121.305 162.171,120.52 160.978,119.146C65.291,9.245 -41.226,10.209 -42.371,10.062C-45.587,10.127 -48.706,7.381 -48.776,3.907C-48.845,0.449 -46.095,-2.42 -42.633,-2.494C-41.562,-2.518 65.381,-6.188 160.978,-115.992C162.269,-117.479 164.219,-118.24 166.156,-118.133C168.122,-117.994 169.912,-116.939 170.983,-115.281C171.71,-114.152 245.033,-2.494 336.551,-2.494C340.016,-2.494 342.829,0.318 342.829,3.784C342.829,7.251 340.016,10.062 336.551,10.062C244.967,10.062 171.649,117.446 170.922,118.533C169.83,120.152 168.048,121.173 166.099,121.288C165.968,121.296 165.842,121.305 165.71,121.305Z" style="fill:none;fill-rule:nonzero;stroke:white;stroke-width:5px;"/>
                </g>
                <g transform="matrix(1,0,0,1,2432.37,515.13)">
                    <path d="M0,12.556L-1782.48,12.556C-1785.67,12.556 -1788.52,10.262 -1788.91,7.096C-1789.4,3.265 -1786.42,0 -1782.69,0L-0.264,0C2.959,0 5.854,2.313 6.232,5.514C6.682,9.321 3.718,12.556 0,12.556Z" style="fill:white;fill-rule:nonzero;stroke:white;stroke-width:5px;"/>
                </g>
                <g transform="matrix(1,0,0,1,755.132,391.129)">
                    <path d="M0,257.191C-13.667,257.191 -27.661,250.659 -36.71,239.371C-56.908,214.17 -50.492,176.046 -32.962,155.177C-23.672,144.118 -10.855,135.592 3.896,130.279C-10.859,124.958 -23.672,116.432 -32.962,105.372C-50.492,84.504 -56.908,46.379 -36.71,21.178C-25.053,6.636 -5.19,0 11.611,5.026C30.097,10.56 42.396,29.826 39.02,47.973C36.943,59.148 29.313,68.016 19.577,70.583C13.68,72.128 7.018,70.902 1.762,67.314C-3.024,64.035 -5.991,59.311 -6.596,53.998C-6.988,50.548 -4.516,47.442 -1.071,47.05C2.404,46.747 5.489,49.134 5.878,52.575C6.131,54.783 7.847,56.262 8.849,56.949C11.118,58.493 14.015,59.083 16.382,58.436C21.286,57.145 25.52,51.905 26.677,45.685C28.875,33.848 20.326,20.745 8.011,17.058C-4.021,13.437 -18.375,18.375 -26.909,29.025C-42.62,48.627 -37.752,80.147 -23.349,97.296C-9.42,113.881 14.109,123.797 39.829,124.001C40.369,124.009 40.904,124.009 41.435,124.001C44.884,124.025 47.668,126.83 47.668,130.279C47.668,133.728 44.884,136.532 41.435,136.557L39.829,136.557C14.109,136.745 -9.42,146.668 -23.349,163.254C-37.752,180.403 -42.62,211.922 -26.909,231.524C-18.375,242.167 -4.014,247.096 8.007,243.491C20.326,239.805 28.875,226.701 26.677,214.865C25.52,208.645 21.286,203.405 16.382,202.113C14.007,201.468 11.113,202.056 8.849,203.601C7.847,204.288 6.131,205.768 5.878,207.974C5.485,211.416 2.359,213.868 -1.071,213.5C-4.516,213.108 -6.988,210.002 -6.596,206.552C-5.991,201.239 -3.024,196.514 1.762,193.236C7.018,189.648 13.688,188.422 19.577,189.967C29.313,192.533 36.943,201.402 39.02,212.576C42.396,230.723 30.097,249.99 11.608,255.524C7.851,256.652 3.94,257.191 0,257.191" style="fill:white;fill-rule:nonzero;"/>
                </g>
                <g transform="matrix(1,0,0,1,755.132,391.129)">
                    <path d="M0,257.191C-13.667,257.191 -27.661,250.659 -36.71,239.371C-56.908,214.17 -50.492,176.046 -32.962,155.177C-23.672,144.118 -10.855,135.592 3.896,130.279C-10.859,124.958 -23.672,116.432 -32.962,105.372C-50.492,84.504 -56.908,46.379 -36.71,21.178C-25.053,6.636 -5.19,0 11.611,5.026C30.097,10.56 42.396,29.826 39.02,47.973C36.943,59.148 29.313,68.016 19.577,70.583C13.68,72.128 7.018,70.902 1.762,67.314C-3.024,64.035 -5.991,59.311 -6.596,53.998C-6.988,50.548 -4.516,47.442 -1.071,47.05C2.404,46.747 5.489,49.134 5.878,52.575C6.131,54.783 7.847,56.262 8.849,56.949C11.118,58.493 14.015,59.083 16.382,58.436C21.286,57.145 25.52,51.905 26.677,45.685C28.875,33.848 20.326,20.745 8.011,17.058C-4.021,13.437 -18.375,18.375 -26.909,29.025C-42.62,48.627 -37.752,80.147 -23.349,97.296C-9.42,113.881 14.109,123.797 39.829,124.001C40.369,124.009 40.904,124.009 41.435,124.001C44.884,124.025 47.668,126.83 47.668,130.279C47.668,133.728 44.884,136.532 41.435,136.557L39.829,136.557C14.109,136.745 -9.42,146.668 -23.349,163.254C-37.752,180.403 -42.62,211.922 -26.909,231.524C-18.375,242.167 -4.014,247.096 8.007,243.491C20.326,239.805 28.875,226.701 26.677,214.865C25.52,208.645 21.286,203.405 16.382,202.113C14.007,201.468 11.113,202.056 8.849,203.601C7.847,204.288 6.131,205.768 5.878,207.974C5.485,211.416 2.359,213.868 -1.071,213.5C-4.516,213.108 -6.988,210.002 -6.596,206.552C-5.991,201.239 -3.024,196.514 1.762,193.236C7.018,189.648 13.688,188.422 19.577,189.967C29.313,192.533 36.943,201.402 39.02,212.576C42.396,230.723 30.097,249.99 11.608,255.524C7.851,256.652 3.94,257.191 0,257.191Z" style="fill:none;fill-rule:nonzero;stroke:white;stroke-width:5px;"/>
                </g>
                <g transform="matrix(1,0,0,1,6723.56,593.106)">
                    <path d="M0,-139.623C1.831,-139.623 3.646,-138.822 4.884,-137.293C5.195,-136.909 36.534,-98.572 79.931,-77.344C82.084,-76.29 83.45,-74.098 83.45,-71.704C83.45,-69.309 82.084,-67.118 79.931,-66.063C36.567,-44.843 5.881,-3.785 5.575,-3.367C3.515,-0.58 -0.434,0 -3.204,-2.06C-5.991,-4.12 -6.581,-8.051 -4.521,-10.839C-3.306,-12.482 23.546,-48.392 63.799,-71.679C23.59,-94.509 -3.646,-127.876 -4.88,-129.397C-7.059,-132.095 -6.638,-136.042 -3.944,-138.225C-2.783,-139.165 -1.386,-139.623 0,-139.623" style="fill:white;fill-rule:nonzero;"/>
                </g>
                <g transform="matrix(1,0,0,1,6723.56,593.106)">
                    <path d="M0,-139.623C1.831,-139.623 3.646,-138.822 4.884,-137.293C5.195,-136.909 36.534,-98.572 79.931,-77.344C82.084,-76.29 83.45,-74.098 83.45,-71.704C83.45,-69.309 82.084,-67.118 79.931,-66.063C36.567,-44.843 5.881,-3.785 5.575,-3.367C3.515,-0.58 -0.434,0 -3.204,-2.06C-5.991,-4.12 -6.581,-8.051 -4.521,-10.839C-3.306,-12.482 23.546,-48.392 63.799,-71.679C23.59,-94.509 -3.646,-127.876 -4.88,-129.397C-7.059,-132.095 -6.638,-136.042 -3.944,-138.225C-2.783,-139.165 -1.386,-139.623 0,-139.623Z" style="fill:none;fill-rule:nonzero;stroke:white;stroke-width:5px;"/>
                </g>
                <g transform="matrix(1,0,0,1,6932.21,525.186)">
                    <path d="M0,-3.064C-40.576,-12.464 -104.249,-37.649 -165.171,-104.963C-180.269,-84.536 -229.898,-23.335 -295.708,-3.668C-229.804,16.791 -180.13,80.509 -165.073,101.696C-104.146,34.341 -40.495,7.563 0,-3.064M-165.71,-121.304C-163.899,-121.304 -162.171,-120.519 -160.978,-119.145C-65.291,-9.244 41.227,-10.209 42.371,-10.061C45.587,-10.126 48.707,-7.38 48.776,-3.906C48.845,-0.448 46.095,2.421 42.633,2.495C41.563,2.519 -65.38,6.189 -160.978,115.993C-162.269,117.48 -164.219,118.24 -166.156,118.134C-168.122,117.995 -169.912,116.94 -170.982,115.282C-171.71,114.153 -245.033,2.495 -336.551,2.495C-340.016,2.495 -342.828,-0.317 -342.828,-3.783C-342.828,-7.25 -340.016,-10.061 -336.551,-10.061C-244.967,-10.061 -171.649,-117.445 -170.921,-118.532C-169.83,-120.151 -168.048,-121.172 -166.099,-121.287C-165.968,-121.295 -165.841,-121.304 -165.71,-121.304" style="fill:white;fill-rule:nonzero;"/>
                </g>
                <g transform="matrix(1,0,0,1,6932.21,525.186)">
                    <path d="M0,-3.064C-40.576,-12.464 -104.249,-37.649 -165.171,-104.963C-180.269,-84.536 -229.898,-23.335 -295.708,-3.668C-229.804,16.791 -180.13,80.509 -165.073,101.696C-104.146,34.341 -40.495,7.563 0,-3.064ZM-165.71,-121.304C-163.899,-121.304 -162.171,-120.519 -160.978,-119.145C-65.291,-9.244 41.227,-10.209 42.371,-10.061C45.587,-10.126 48.707,-7.38 48.776,-3.906C48.845,-0.448 46.095,2.421 42.633,2.495C41.563,2.519 -65.38,6.189 -160.978,115.993C-162.269,117.48 -164.219,118.24 -166.156,118.134C-168.122,117.995 -169.912,116.94 -170.982,115.282C-171.71,114.153 -245.033,2.495 -336.551,2.495C-340.016,2.495 -342.828,-0.317 -342.828,-3.783C-342.828,-7.25 -340.016,-10.061 -336.551,-10.061C-244.967,-10.061 -171.649,-117.445 -170.921,-118.532C-169.83,-120.151 -168.048,-121.172 -166.099,-121.287C-165.968,-121.295 -165.841,-121.304 -165.71,-121.304Z" style="fill:none;fill-rule:nonzero;stroke:white;stroke-width:5px;"/>
                </g>
                <g transform="matrix(1,0,0,1,4812.97,527.681)">
                    <path d="M0,-12.556L1782.48,-12.556C1785.67,-12.556 1788.52,-10.262 1788.91,-7.096C1789.4,-3.265 1786.42,0 1782.69,0L0.264,0C-2.959,0 -5.854,-2.313 -6.232,-5.514C-6.683,-9.321 -3.718,-12.556 0,-12.556Z" style="fill:white;fill-rule:nonzero;stroke:white;stroke-width:5px;"/>
                </g>
                <g transform="matrix(1,0,0,1,6490.21,651.682)">
                    <path d="M0,-257.191C13.667,-257.191 27.661,-250.659 36.71,-239.371C56.909,-214.17 50.492,-176.046 32.962,-155.177C23.672,-144.118 10.855,-135.592 -3.896,-130.279C10.859,-124.958 23.672,-116.432 32.962,-105.372C50.492,-84.504 56.909,-46.379 36.71,-21.178C25.054,-6.636 5.19,0 -11.611,-5.026C-30.097,-10.561 -42.396,-29.826 -39.02,-47.973C-36.943,-59.148 -29.312,-68.016 -19.577,-70.583C-13.679,-72.128 -7.018,-70.902 -1.762,-67.314C3.024,-64.035 5.992,-59.311 6.596,-53.998C6.989,-50.548 4.516,-47.442 1.071,-47.05C-2.404,-46.747 -5.489,-49.134 -5.877,-52.575C-6.131,-54.783 -7.847,-56.262 -8.849,-56.949C-11.117,-58.493 -14.015,-59.083 -16.381,-58.436C-21.286,-57.145 -25.52,-51.905 -26.677,-45.685C-28.875,-33.848 -20.326,-20.745 -8.011,-17.058C4.021,-13.437 18.375,-18.375 26.909,-29.025C42.62,-48.627 37.752,-80.147 23.349,-97.296C9.42,-113.881 -14.109,-123.797 -39.829,-124.001C-40.368,-124.009 -40.904,-124.009 -41.435,-124.001C-44.884,-124.025 -47.668,-126.83 -47.668,-130.279C-47.668,-133.728 -44.884,-136.532 -41.435,-136.557L-39.829,-136.557C-14.109,-136.745 9.42,-146.668 23.349,-163.254C37.752,-180.403 42.62,-211.922 26.909,-231.524C18.375,-242.167 4.014,-247.096 -8.007,-243.491C-20.326,-239.805 -28.875,-226.701 -26.677,-214.865C-25.52,-208.645 -21.286,-203.405 -16.381,-202.113C-14.007,-201.468 -11.113,-202.056 -8.849,-203.602C-7.847,-204.288 -6.131,-205.768 -5.877,-207.974C-5.485,-211.416 -2.358,-213.868 1.071,-213.5C4.516,-213.108 6.989,-210.002 6.596,-206.552C5.992,-201.239 3.024,-196.514 -1.762,-193.236C-7.018,-189.648 -13.688,-188.422 -19.577,-189.967C-29.312,-192.533 -36.943,-201.402 -39.02,-212.576C-42.396,-230.723 -30.097,-249.99 -11.608,-255.524C-7.851,-256.652 -3.94,-257.191 0,-257.191" style="fill:white;fill-rule:nonzero;"/>
                </g>
                <g transform="matrix(1,0,0,1,6490.21,651.682)">
                    <path d="M0,-257.191C13.667,-257.191 27.661,-250.659 36.71,-239.371C56.909,-214.17 50.492,-176.046 32.962,-155.177C23.672,-144.118 10.855,-135.592 -3.896,-130.279C10.859,-124.958 23.672,-116.432 32.962,-105.372C50.492,-84.504 56.909,-46.379 36.71,-21.178C25.054,-6.636 5.19,0 -11.611,-5.026C-30.097,-10.561 -42.396,-29.826 -39.02,-47.973C-36.943,-59.148 -29.312,-68.016 -19.577,-70.583C-13.679,-72.128 -7.018,-70.902 -1.762,-67.314C3.024,-64.035 5.992,-59.311 6.596,-53.998C6.989,-50.548 4.516,-47.442 1.071,-47.05C-2.404,-46.747 -5.489,-49.134 -5.877,-52.575C-6.131,-54.783 -7.847,-56.262 -8.849,-56.949C-11.117,-58.493 -14.015,-59.083 -16.381,-58.436C-21.286,-57.145 -25.52,-51.905 -26.677,-45.685C-28.875,-33.848 -20.326,-20.745 -8.011,-17.058C4.021,-13.437 18.375,-18.375 26.909,-29.025C42.62,-48.627 37.752,-80.147 23.349,-97.296C9.42,-113.881 -14.109,-123.797 -39.829,-124.001C-40.368,-124.009 -40.904,-124.009 -41.435,-124.001C-44.884,-124.025 -47.668,-126.83 -47.668,-130.279C-47.668,-133.728 -44.884,-136.532 -41.435,-136.557L-39.829,-136.557C-14.109,-136.745 9.42,-146.668 23.349,-163.254C37.752,-180.403 42.62,-211.922 26.909,-231.524C18.375,-242.167 4.014,-247.096 -8.007,-243.491C-20.326,-239.805 -28.875,-226.701 -26.677,-214.865C-25.52,-208.645 -21.286,-203.405 -16.381,-202.113C-14.007,-201.468 -11.113,-202.056 -8.849,-203.602C-7.847,-204.288 -6.131,-205.768 -5.877,-207.974C-5.485,-211.416 -2.358,-213.868 1.071,-213.5C4.516,-213.108 6.989,-210.002 6.596,-206.552C5.992,-201.239 3.024,-196.514 -1.762,-193.236C-7.018,-189.648 -13.688,-188.422 -19.577,-189.967C-29.312,-192.533 -36.943,-201.402 -39.02,-212.576C-42.396,-230.723 -30.097,-249.99 -11.608,-255.524C-7.851,-256.652 -3.94,-257.191 0,-257.191Z" style="fill:none;fill-rule:nonzero;stroke:white;stroke-width:5px;"/>
                </g>
            </g>
        </g>
    </g>
    <defs>
        <linearGradient id="_Linear2" x1="0" y1="0" x2="1" y2="0" gradientUnits="userSpaceOnUse" gradientTransform="matrix(1,0,0,-1,0,0.00198364)"><stop offset="0" style="stop-color:rgb(249,178,51);stop-opacity:1"/><stop offset="0.25" style="stop-color:rgb(147,96,55);stop-opacity:1"/><stop offset="0.39" style="stop-color:rgb(147,96,55);stop-opacity:1"/><stop offset="0.64" style="stop-color:rgb(177,127,74);stop-opacity:1"/><stop offset="0.86" style="stop-color:rgb(198,141,70);stop-opacity:1"/><stop offset="1" style="stop-color:rgb(249,178,51);stop-opacity:1"/></linearGradient>
    </defs>
</svg>
