<?xml version="1.0" encoding="UTF-8" standalone="no"?>
<!DOCTYPE svg PUBLIC "-//W3C//DTD SVG 1.1//EN" "http://www.w3.org/Graphics/SVG/1.1/DTD/svg11.dtd">
<svg width="100%" height="100%" viewBox="0 0 424 68" version="1.1" xmlns="http://www.w3.org/2000/svg" xmlns:xlink="http://www.w3.org/1999/xlink" xml:space="preserve" xmlns:serif="http://www.serif.com/" style="fill-rule:evenodd;clip-rule:evenodd;stroke-linejoin:round;stroke-miterlimit:2;">
    <g transform="matrix(1,0,0,1,-97.9879,-153.368)">
        <g transform="matrix(70,0,0,70,440.175,201.002)">
            <path d="M-0.229,-0.354C-0.218,-0.363 -0.205,-0.369 -0.19,-0.374C-0.175,-0.378 -0.16,-0.381 -0.144,-0.383C-0.128,-0.385 -0.112,-0.386 -0.096,-0.387C-0.08,-0.387 -0.065,-0.387 -0.052,-0.387C-0.014,-0.388 0.024,-0.387 0.063,-0.386C0.101,-0.384 0.139,-0.382 0.177,-0.38C0.191,-0.395 0.205,-0.409 0.221,-0.424C0.235,-0.438 0.251,-0.452 0.266,-0.465C0.279,-0.476 0.293,-0.487 0.306,-0.498C0.319,-0.509 0.333,-0.519 0.348,-0.528C0.352,-0.53 0.358,-0.533 0.366,-0.537C0.373,-0.54 0.381,-0.543 0.389,-0.545C0.397,-0.547 0.405,-0.548 0.412,-0.547C0.419,-0.546 0.424,-0.541 0.427,-0.534C0.43,-0.528 0.431,-0.521 0.429,-0.513C0.426,-0.505 0.423,-0.497 0.418,-0.489C0.412,-0.481 0.407,-0.473 0.401,-0.467C0.395,-0.46 0.39,-0.454 0.387,-0.45C0.375,-0.436 0.363,-0.423 0.352,-0.41C0.34,-0.397 0.327,-0.385 0.314,-0.372L0.407,-0.369C0.424,-0.368 0.442,-0.367 0.459,-0.367C0.476,-0.366 0.494,-0.367 0.511,-0.368C0.518,-0.369 0.526,-0.369 0.534,-0.369C0.542,-0.369 0.55,-0.37 0.558,-0.371C0.562,-0.372 0.568,-0.373 0.576,-0.375C0.584,-0.377 0.59,-0.376 0.593,-0.373C0.598,-0.368 0.598,-0.364 0.594,-0.361C0.589,-0.358 0.583,-0.355 0.576,-0.353C0.568,-0.351 0.56,-0.349 0.553,-0.348C0.545,-0.347 0.54,-0.347 0.538,-0.347C0.519,-0.344 0.5,-0.343 0.481,-0.343L0.425,-0.343C0.402,-0.343 0.379,-0.344 0.357,-0.344C0.334,-0.345 0.312,-0.347 0.289,-0.348C0.249,-0.309 0.208,-0.272 0.166,-0.236C0.124,-0.2 0.082,-0.164 0.039,-0.128C0.031,-0.115 0.024,-0.102 0.017,-0.09C0.01,-0.077 0.004,-0.063 0.001,-0.049C-0.002,-0.036 -0.001,-0.027 0.005,-0.023C0.01,-0.018 0.018,-0.017 0.027,-0.018C0.035,-0.019 0.045,-0.021 0.055,-0.025C0.065,-0.03 0.073,-0.034 0.079,-0.038C0.095,-0.049 0.11,-0.061 0.124,-0.074C0.138,-0.086 0.152,-0.1 0.165,-0.113C0.185,-0.134 0.202,-0.151 0.215,-0.165C0.228,-0.179 0.238,-0.19 0.247,-0.199C0.256,-0.207 0.263,-0.213 0.268,-0.216C0.273,-0.219 0.278,-0.221 0.283,-0.221C0.288,-0.221 0.292,-0.219 0.297,-0.216C0.302,-0.212 0.305,-0.208 0.307,-0.204C0.308,-0.201 0.308,-0.197 0.307,-0.194C0.305,-0.19 0.302,-0.186 0.299,-0.182C0.296,-0.178 0.292,-0.174 0.289,-0.171C0.286,-0.168 0.283,-0.165 0.281,-0.163C0.265,-0.145 0.25,-0.127 0.236,-0.109C0.232,-0.104 0.227,-0.098 0.221,-0.091C0.215,-0.083 0.209,-0.075 0.204,-0.067C0.199,-0.058 0.195,-0.05 0.193,-0.041C0.19,-0.032 0.191,-0.025 0.194,-0.019C0.199,-0.015 0.206,-0.014 0.213,-0.015C0.22,-0.016 0.228,-0.019 0.235,-0.023C0.242,-0.026 0.25,-0.03 0.257,-0.035C0.264,-0.04 0.269,-0.044 0.273,-0.047C0.289,-0.058 0.305,-0.071 0.32,-0.085C0.335,-0.098 0.349,-0.113 0.362,-0.128C0.363,-0.13 0.365,-0.132 0.367,-0.135C0.369,-0.137 0.371,-0.139 0.374,-0.14C0.376,-0.141 0.378,-0.142 0.381,-0.141C0.383,-0.141 0.385,-0.139 0.387,-0.135C0.388,-0.131 0.388,-0.128 0.385,-0.125C0.382,-0.122 0.38,-0.119 0.378,-0.116C0.353,-0.087 0.324,-0.06 0.293,-0.037C0.287,-0.032 0.28,-0.027 0.273,-0.021C0.265,-0.016 0.257,-0.011 0.249,-0.006C0.24,-0.001 0.232,0.002 0.223,0.005C0.214,0.008 0.206,0.009 0.197,0.008C0.188,0.007 0.18,0.005 0.175,-0C0.17,-0.005 0.166,-0.01 0.163,-0.017C0.16,-0.024 0.159,-0.031 0.159,-0.039C0.159,-0.047 0.16,-0.055 0.163,-0.062C0.166,-0.069 0.169,-0.077 0.172,-0.084C0.176,-0.091 0.18,-0.098 0.184,-0.105C0.166,-0.086 0.147,-0.068 0.128,-0.051C0.108,-0.033 0.086,-0.018 0.063,-0.007C0.057,-0.004 0.05,-0.001 0.043,0.001C0.035,0.003 0.027,0.004 0.02,0.004C0.012,0.005 0.005,0.004 -0.002,0.001C-0.009,-0.002 -0.014,-0.007 -0.019,-0.014C-0.024,-0.021 -0.026,-0.029 -0.026,-0.039C-0.027,-0.048 -0.026,-0.057 -0.024,-0.066C-0.022,-0.075 -0.019,-0.083 -0.016,-0.092C-0.013,-0.101 -0.01,-0.109 -0.007,-0.116C0.007,-0.15 0.024,-0.182 0.045,-0.213C0.066,-0.243 0.087,-0.273 0.11,-0.302C0.117,-0.311 0.125,-0.321 0.132,-0.33C0.139,-0.339 0.147,-0.348 0.155,-0.357C0.123,-0.359 0.091,-0.361 0.06,-0.362C0.029,-0.363 -0.003,-0.364 -0.035,-0.364C-0.052,-0.364 -0.068,-0.364 -0.085,-0.363C-0.102,-0.362 -0.118,-0.361 -0.135,-0.36C-0.148,-0.359 -0.161,-0.357 -0.175,-0.355C-0.19,-0.352 -0.202,-0.347 -0.213,-0.34C-0.216,-0.338 -0.219,-0.337 -0.222,-0.338C-0.225,-0.338 -0.228,-0.339 -0.23,-0.34C-0.233,-0.341 -0.234,-0.343 -0.234,-0.346C-0.234,-0.349 -0.232,-0.351 -0.229,-0.354ZM0.316,-0.476C0.299,-0.461 0.282,-0.445 0.266,-0.429C0.25,-0.412 0.234,-0.395 0.219,-0.378L0.278,-0.374C0.295,-0.39 0.312,-0.406 0.329,-0.423C0.345,-0.44 0.36,-0.455 0.373,-0.469C0.386,-0.483 0.396,-0.495 0.403,-0.504C0.409,-0.514 0.412,-0.52 0.41,-0.523C0.405,-0.528 0.398,-0.529 0.389,-0.526C0.38,-0.523 0.37,-0.518 0.361,-0.511C0.351,-0.505 0.342,-0.498 0.334,-0.491C0.325,-0.484 0.319,-0.479 0.316,-0.476ZM0.198,-0.354C0.157,-0.304 0.119,-0.251 0.082,-0.194C0.097,-0.207 0.113,-0.221 0.128,-0.234C0.142,-0.248 0.158,-0.262 0.173,-0.276L0.253,-0.351L0.198,-0.354ZM0.383,-0.283C0.38,-0.276 0.375,-0.269 0.369,-0.262C0.362,-0.255 0.355,-0.25 0.347,-0.248C0.336,-0.246 0.328,-0.249 0.325,-0.258C0.321,-0.266 0.321,-0.274 0.324,-0.283C0.327,-0.291 0.332,-0.299 0.338,-0.306C0.344,-0.313 0.351,-0.317 0.36,-0.318C0.371,-0.321 0.378,-0.318 0.382,-0.309C0.385,-0.3 0.386,-0.292 0.383,-0.283Z" style="fill:white;fill-rule:nonzero;"/>
        </g>
        <text x="97.945px" y="201.002px" style="font-family:'YaquoteScriptPersonalUse', 'Yaquote Script Personal Use';font-size:70px;fill:white;">Second hand &amp; An<tspan x="465.655px " y="201.002px ">q</tspan>ue</text>
    </g>
</svg>
